<svg xmlns="http://www.w3.org/2000/svg" width="217" height="199" viewBox="0 0 217 199" fill="none"><path fill-rule="evenodd" clip-rule="evenodd" d="M200.452 1.15406C199.153 -0.0312831 197.315 -0.376187 195.733 0.461648C193.768 1.50288 192.55 3.82122 191.863 5.83229C190.256 10.5317 191.005 15.5604 192.025 20.297C191.08 17.6632 189.419 14.7607 186.949 13.2616C184.683 11.8858 182.349 13.0842 182.199 15.7201C182.047 18.3899 183.275 21.1561 184.483 23.471C185.867 26.1264 187.553 28.6594 189.26 31.1197C189.769 31.8545 190.296 32.5777 190.852 33.2787C191.143 33.6466 191.448 34.0028 191.75 34.3624C191.893 34.5333 192.299 34.8445 192.345 35.0708C192.442 35.5568 191.864 36.6262 191.723 37.0581C191.445 37.9098 191.158 38.7597 190.852 39.6019C190.588 36.2285 189.418 33.0113 187.98 29.9694C186.48 26.7955 184.643 23.6562 182.145 21.1461C180.468 19.4618 176.925 17.1915 175.269 20.1789C173.838 22.7582 175.412 26.2653 176.679 28.5888C175.21 27.4641 172.007 25.5426 170.565 27.7346C169.178 29.8426 170.731 33.3142 171.644 35.2863C169.752 33.8763 166.386 33.0225 165.606 36.0796C164.957 38.6234 166.486 41.6921 167.607 43.9018C170.48 49.5594 174.975 54.5185 179.433 58.9941C179.772 59.3343 180.112 59.6718 180.466 59.9955C180.912 60.4028 181.024 60.398 180.698 60.9368C180.216 61.7344 179.725 62.5272 179.226 63.3144C178.227 64.8888 177.194 66.4416 176.122 67.9679C176.064 61.901 174.348 55.979 171.463 50.6482C170.123 48.1702 168.5 45.3196 166.082 43.7261C163.962 42.3287 161.188 42.7433 160.407 45.3936C159.575 48.2217 160.791 51.4744 161.829 54.0917C160.323 52.4702 156.098 49.0292 154.276 52.1001C153.534 53.3521 153.646 55.0442 153.839 56.4282C154.118 58.4215 154.775 60.3422 155.482 62.2199C154.27 60.3002 150.017 55.4264 147.477 58.2489C146.432 59.4104 146.509 61.2506 146.669 62.693C146.893 64.7019 147.349 66.6796 147.888 68.6257C146.786 66.9791 144.966 65.0082 142.811 64.9909C139.808 64.9671 139.212 68.6608 139.113 70.9341C138.858 76.8258 140.335 82.8317 142.274 88.3534C142.837 89.9542 143.46 91.5338 144.148 93.0857C144.504 93.8885 144.877 94.6839 145.268 95.4702C145.625 96.1877 145.967 97.2229 146.55 97.7959C143.247 100.166 139.831 102.381 136.358 104.497C137.762 99.9441 138.755 95.253 139.07 90.4956C139.346 86.3107 139.524 81.4719 137.707 77.5796C136.928 75.9096 135.713 74.3274 133.892 73.7276C131.907 73.0741 129.815 73.9193 128.731 75.6759C127.582 77.539 127.296 80.0495 127.183 82.1878C127.059 84.5641 127.264 86.9508 127.62 89.2998C128.472 94.9253 129.78 100.682 131.778 106.018L131.774 106.011L131.783 106.033L131.78 106.024C131.907 106.414 132.149 106.824 131.94 107.107C131.773 107.334 131.25 107.501 130.999 107.643C130.319 108.029 129.637 108.412 128.954 108.792C127.586 109.552 126.211 110.298 124.828 111.029C126.241 105.952 127.053 100.703 127.275 95.4412C127.463 90.9781 127.438 85.6217 124.251 82.0783C123.02 80.7081 121.019 79.9681 119.302 80.9189C117.189 82.0887 116.704 84.9934 116.448 87.1611C115.834 92.3521 117.082 97.5678 118.262 102.59C118.982 105.653 119.778 108.701 120.477 111.768C120.529 111.995 120.569 112.226 120.623 112.453C120.792 113.172 120.796 113.127 120.125 113.467C119.34 113.865 118.554 114.26 117.766 114.653C116.304 115.383 114.837 116.104 113.367 116.818C115.12 112.477 116.273 107.886 116.677 103.223C117.078 98.5766 116.948 93.4886 115.552 89.0025C114.997 87.2178 113.914 84.9812 111.738 84.9371C109.698 84.896 108.476 86.7556 107.826 88.4378C106.089 92.9295 105.917 98.1746 106.121 102.922C106.239 105.645 106.558 108.35 106.869 111.056C107.182 113.787 107.585 116.513 108.625 119.078C106.327 120.162 104.019 121.225 101.707 122.281C103.539 117.884 104.795 113.234 105.29 108.497C105.767 103.928 105.814 98.7068 104.287 94.3112C103.674 92.5455 102.448 90.6124 100.342 90.6029C98.4062 90.5938 97.1769 92.1747 96.3905 93.7426C94.3439 97.8223 94.3417 102.927 94.564 107.379C94.7018 110.137 95.0675 112.874 95.4764 115.603C95.9114 118.506 96.3731 121.475 97.3639 124.25C93.663 125.915 89.9577 127.57 86.2525 129.225C88.6892 124.678 91.1848 120.11 92.6538 115.144C93.8495 111.102 94.8081 106.39 93.666 102.233C93.1948 100.518 92.292 98.4931 90.4769 97.8465C88.5179 97.1489 86.6487 98.426 85.3719 99.7974C82.0254 103.392 81.0468 108.86 80.5398 113.559C79.93 119.208 80.1675 125.014 80.8881 130.643L80.8872 130.635L80.8885 130.646L80.8881 130.643C80.9034 130.858 80.9212 131.072 80.9417 131.285C81.0943 131.574 81.0001 131.73 80.6584 131.756C80.4103 131.967 79.9574 132.074 79.6523 132.213C78.8145 132.594 77.9766 132.977 77.1401 133.361C75.5224 134.104 73.907 134.851 72.2941 135.604C74.6977 132.592 76.2857 128.622 77.5852 125.031C78.865 121.493 79.7547 117.757 80.0381 114.003C80.2944 110.61 80.2625 106.391 78.2595 103.463C76.1754 100.417 72.2474 100.8 70.0282 103.448C67.3469 106.649 66.6638 111.257 66.247 115.263C65.7928 111.75 63.578 105.993 58.9337 107.936C54.9251 109.614 53.1749 114.61 52.3009 118.456C51.9286 116.615 51.1095 114.606 49.5041 113.494C47.7042 112.249 45.3585 112.665 43.7792 114.057C42.172 115.474 41.2278 117.549 40.4794 119.507C39.5465 121.949 38.9672 124.516 38.6703 127.109C38.1925 125.206 37.2968 123.104 35.6224 121.944C33.748 120.645 31.3269 121.193 29.7528 122.692C28.1578 124.211 27.313 126.399 26.7315 128.47C26.0009 131.072 25.6879 133.776 25.633 136.471C24.9125 133.982 23.7136 131.031 21.3754 129.618C19.0093 128.188 16.6933 129.591 15.2801 131.618C13.6694 133.928 12.9806 136.74 12.5508 139.478C12.0957 142.377 11.9959 145.312 12.138 148.241C12.2836 151.245 12.6607 154.236 13.1441 157.204C13.6205 160.13 14.1088 163.094 14.9261 165.948C15.3402 167.393 15.967 168.709 16.5032 170.104C16.9021 171.141 15.4457 172.093 14.8062 172.831C12.7369 175.219 10.7937 177.717 8.96369 180.291C6.92579 183.156 4.96678 186.118 3.33821 189.235C2.57754 190.691 1.81989 192.172 1.20525 193.695C0.550512 195.319 0.418455 196.974 0.0644931 198.668L0.0653445 198.667C0.0588058 198.695 0.0523011 198.723 0.0457624 198.751L0.0466138 198.748L0.036131 198.785L0.0383127 198.781L0.0296391 198.812L0.0326722 198.806L0.0230941 198.832L0.0283088 198.824L0.0204867 198.843L0.0274574 198.833L0.0221894 198.841L0.0304905 198.832L0.0265528 198.838L0.0387916 198.825L0.0357053 198.831C0.0457313 198.823 0.05056 198.82 0.0592783 198.815C0.0374826 198.868 0.0165647 198.929 0 198.985C0.669127 199.276 2.12377 195.186 2.3657 194.614L2.36522 194.615L2.3731 194.596L2.3657 194.614L2.37613 194.591L2.36741 194.613L2.37656 194.595L2.36874 194.612C6.63459 186.493 11.9955 178.896 18.277 172.188C20.2691 175.563 23.8628 177.645 27.1544 179.584C30.6059 181.618 34.1503 183.446 37.9158 184.843C41.3586 186.121 45.0342 187.234 48.7029 187.616C51.2952 187.885 56.6374 187.952 57.5227 184.702C58.4394 181.338 54.1374 178.286 51.783 176.696C53.9809 177.462 56.1957 178.209 58.4826 178.669C60.5017 179.077 62.7924 179.434 64.826 178.933C66.6755 178.479 67.9 176.995 67.6459 175.062C67.3586 172.881 65.5335 171.201 64.0008 169.781C67.0326 171.415 71.4566 173.347 74.7814 171.38C78.719 169.051 76.2282 164.211 73.8293 161.781C77.2988 162.981 81.0263 163.89 84.7242 163.494C86.1849 163.337 88.0881 162.952 88.8902 161.575C89.8034 160.006 88.6439 158.179 87.5942 157.011C90.2589 158.166 92.9995 159.196 95.8547 159.779C98.0352 160.224 100.877 160.627 102.67 158.973C107.099 154.888 98.2091 149.209 95.3918 147.413C99.9262 149.389 104.843 151.341 109.889 151.093C112 150.99 114.679 150.475 115.546 148.26C116.502 145.817 114.347 143.383 112.708 141.826C115.449 143.434 118.352 144.834 121.444 145.631C123.887 146.262 126.979 146.759 129.133 145.087C134.686 140.776 125.479 133.963 122.259 131.709C126.867 134.256 131.948 136.691 137.323 136.822C139.644 136.878 142.986 136.383 142.922 133.393C142.863 130.646 140.02 128.638 138.051 127.137C140.6 128.162 143.243 128.987 145.957 129.449C148.332 129.853 151.04 130.038 153.236 128.855C155.483 127.644 155.897 125.234 154.48 123.212C152.955 121.033 150.445 119.722 148.054 118.693C150.501 119.374 153.009 119.881 155.547 120.066C157.905 120.239 160.431 120.222 162.638 119.272C164.377 118.524 165.588 116.962 165.238 115.015C164.814 112.654 162.523 111.068 160.536 110.025C164.865 110.298 169.328 110.35 173.549 109.217C175.211 108.771 177.037 108.109 178.231 106.821C179.656 105.284 179.389 103.323 177.719 102.105C181.36 102.588 186.936 103.468 189.68 100.289C191.22 98.5043 190.369 96.3309 188.767 94.9379C186.904 93.318 184.469 92.5421 182.109 91.9566C184.649 92.0942 187.201 92.1829 189.74 91.9631C191.811 91.7835 194.51 91.5402 195.997 89.9018C197.212 88.5628 196.929 86.6258 195.777 85.3431C194.243 83.6341 191.659 83.0182 189.489 82.6015C192.046 82.64 194.614 82.5201 197.138 82.0982C199.296 81.7372 201.991 81.2192 203.451 79.4354C204.591 78.0432 204.535 76.0684 203.359 74.7173C201.89 73.0287 199.334 72.599 197.222 72.3649C200.885 72.0204 204.927 71.6534 208.008 69.4519C209.226 68.5816 210.27 67.3128 210.106 65.731C209.896 63.7182 207.883 62.66 206.109 62.2212C208.405 61.9269 210.821 61.5604 212.798 60.2777C214.34 59.2776 215.474 57.6815 214.105 56.0245C212.792 54.4353 210.345 54.0775 208.416 53.871C205.942 53.6066 203.434 53.5512 200.952 53.7252C205.025 52.8216 209.7 51.7189 212.744 48.6722C213.748 47.6673 214.592 46.1401 214.114 44.6968C213.453 42.7031 211.109 42.3344 209.279 42.3391C211.223 41.7402 213.243 41.0668 214.856 39.7914C216.14 38.7757 217.523 36.9369 216.802 35.2262C215.371 31.8346 209.74 32.9061 207.092 33.599C208.986 32.5465 210.846 31.3767 212.426 29.8889C213.85 28.5482 215.417 26.6263 215.434 24.5715C215.453 22.3285 213.316 21.768 211.449 22.061C209.073 22.4345 206.906 23.5913 204.883 24.8303C207.188 23.0205 209.414 20.9163 210.871 18.3526C211.901 16.5389 212.761 13.0153 210.166 11.9767C207.96 11.0934 205.276 13.3031 203.804 14.6732C201.549 16.7709 199.828 19.4332 198.307 22.0822C200.021 18.5422 201.558 14.8749 202.367 11.0155C203.065 7.68411 203.205 3.66324 200.452 1.15406ZM194.984 28.4681C195.111 28.2665 195.246 28.0691 195.387 27.8778C195.249 28.1976 195.103 28.5136 194.948 28.8265C194.961 28.707 194.972 28.5876 194.984 28.4681ZM193.212 25.7014C193.485 26.8811 193.634 28.0842 193.689 29.2929L193.689 29.2796L193.689 29.3293L193.69 29.3168C193.689 29.3483 193.688 29.3795 193.688 29.4111L193.689 29.4038C193.701 30.0685 193.551 30.5939 193.388 31.2569C193.372 29.3704 193.395 27.4926 193.191 25.6144L193.212 25.7014ZM195.655 27.2715C195.804 26.9162 195.971 26.5687 196.144 26.2246C195.969 26.5938 195.792 26.9625 195.627 27.3364L195.655 27.2715ZM190.558 29.8002C189.006 27.5455 187.334 25.3652 185.976 22.9858C184.729 20.8038 183.271 17.9082 183.619 15.3164L183.618 15.3298C183.624 15.2792 183.632 15.2289 183.642 15.1787L183.639 15.1943C183.649 15.1454 183.659 15.097 183.671 15.0481L183.666 15.0636C183.677 15.0165 183.689 14.9693 183.703 14.923C183.708 14.9039 183.714 14.8853 183.721 14.8671L183.717 14.8754C183.725 14.8529 183.733 14.8308 183.74 14.8083L183.736 14.8187C183.744 14.7962 183.752 14.7745 183.761 14.7524L183.757 14.7611C183.765 14.7403 183.774 14.7195 183.782 14.6983L183.779 14.7079C183.788 14.6871 183.797 14.6668 183.807 14.6469L183.802 14.6564C183.812 14.636 183.822 14.6157 183.832 14.5954L183.826 14.6057C183.836 14.5858 183.846 14.5668 183.858 14.5478L183.851 14.5573C183.863 14.5387 183.874 14.5201 183.884 14.5014L183.878 14.5118C184.153 14.0458 184.709 13.8506 185.234 13.9168L185.221 13.9159C185.251 13.9194 185.281 13.9237 185.31 13.9293L185.299 13.9263C185.329 13.9302 185.359 13.9363 185.388 13.9436L185.376 13.9397C185.403 13.9462 185.431 13.9523 185.459 13.9583L185.455 13.9575L185.466 13.9601L185.459 13.9583C185.487 13.9661 185.516 13.9739 185.545 13.9817L185.534 13.9778C185.564 13.9873 185.595 13.9968 185.625 14.0063L185.615 14.0025C185.646 14.012 185.676 14.0228 185.706 14.0341L185.698 14.0302C185.728 14.0406 185.759 14.0523 185.788 14.0652L185.78 14.0613C185.81 14.0739 185.841 14.0864 185.871 14.099L185.863 14.0955L185.872 14.0994C185.9 14.112 185.928 14.1245 185.955 14.1379L185.947 14.134C185.978 14.1479 186.009 14.1626 186.039 14.1782L186.031 14.1751C188.516 15.412 190 18.4686 190.742 20.9921C191.617 23.9682 191.612 27.098 191.878 30.1637C191.273 28.1037 190.661 26.0394 189.935 24.0175C189.658 23.245 189.343 22.4873 189.084 21.7096C188.921 21.2232 188.711 20.236 188.156 20.0261C187.837 20.4875 188.191 21.3366 188.323 21.8035C188.544 22.5855 188.701 23.3805 188.893 24.1699C189.371 26.1329 189.988 28.0682 190.674 29.9685L190.558 29.8002ZM187.585 40.7266C188.159 41.2295 189.093 41.7622 189.547 42.3767C189.892 42.8428 189.522 43.2332 189.306 43.7252C188.459 45.6554 187.698 47.6175 186.807 49.5308C186.716 44.9249 185.343 40.5003 183.044 36.5154C184.534 37.944 186.029 39.3695 187.585 40.7266ZM182.893 50.0003C183.325 50.4997 183.703 51.0425 184.122 51.5514C184.421 51.9136 185.205 52.51 185.188 52.8588C185.163 53.3478 184.516 54.1666 184.283 54.6085C183.949 55.2425 183.609 55.873 183.264 56.501C182.979 53.0877 181.793 49.9026 180.224 46.8754C181.129 47.904 182.013 48.9504 182.893 50.0003ZM183.493 59.7726L183.484 59.7757L183.557 59.6467C183.628 59.6986 183.711 59.7289 183.796 59.7298L183.493 59.7726ZM187.314 56.5178C186.38 56.8541 185.462 57.1929 184.623 57.7261C185.02 57.0047 185.333 56.1434 185.81 55.4753C186.249 54.859 186.891 54.9603 187.615 54.9274C189.423 54.8443 191.232 55.0806 193.039 54.9019C191.105 55.3485 189.184 55.854 187.314 56.5178ZM192.539 48.1066C190.868 49.1093 189.296 50.2483 187.788 51.4774C188.455 50.0506 189.097 48.6134 189.705 47.1606C189.933 46.614 190.087 45.8454 190.583 45.4862C191.07 45.1335 191.915 45.0871 192.494 44.9716C195.516 44.3688 198.537 44.1316 201.593 43.775C198.411 44.8457 195.412 46.3915 192.539 48.1066ZM196.659 38.3291C194.966 39.3911 193.291 40.5336 191.765 41.825C192.024 41.0958 192.235 40.3527 192.474 39.6179C192.756 38.7519 193.283 38.7489 194.097 38.4966C195.75 37.9842 197.387 37.4216 199.044 36.9196C198.237 37.3688 197.444 37.8409 196.659 38.3291ZM177.57 27.5195C176.662 25.8495 174.762 21.9095 176.669 20.2741C178.575 18.64 181.489 22.2185 182.486 23.4787C186.275 28.2638 188.847 34.4013 189.635 40.4358C188.649 37.9799 187.35 35.6581 185.959 33.4085C185.317 32.3708 184.621 31.3663 183.982 30.3272C183.693 29.8564 183.212 28.5745 182.55 28.5373C182.361 29.0666 183.11 29.8945 183.371 30.2883C183.949 31.1651 184.4 32.1241 184.865 33.0641C185.98 35.3197 186.856 37.7033 188.136 39.8762C184.425 36.0021 180.149 32.2894 177.57 27.5195ZM172.538 34.243C171.819 32.7828 171.011 31.0621 171.076 29.3942L171.075 29.3994C171.076 29.3665 171.077 29.3336 171.079 29.3007L171.078 29.3081C171.081 29.2756 171.083 29.2432 171.086 29.2103L171.085 29.2176C171.089 29.1865 171.092 29.1558 171.095 29.1246L171.094 29.1289L171.095 29.1216L171.095 29.1246C171.098 29.0943 171.103 29.064 171.107 29.0342L171.106 29.0424C171.111 29.0121 171.118 28.9818 171.125 28.9515L171.124 28.9602C171.131 28.9303 171.137 28.9004 171.144 28.8701L171.141 28.8797C171.15 28.8511 171.158 28.8221 171.165 28.7931L171.164 28.8013C171.173 28.7736 171.182 28.7455 171.191 28.7178L171.188 28.7274C171.197 28.7023 171.205 28.6767 171.215 28.6516L171.213 28.6564L171.217 28.6455L171.215 28.6516C171.224 28.6265 171.234 28.6018 171.245 28.5776L171.241 28.588C171.414 28.1803 171.782 27.8743 172.23 27.825H172.228L172.24 27.8237L172.23 27.825L172.269 27.8211L172.257 27.8224L172.298 27.8181L172.287 27.8194L172.327 27.8172L172.317 27.8177L172.357 27.8155L172.348 27.8168C172.369 27.8164 172.391 27.8155 172.412 27.8151H172.408H172.419H172.412C172.435 27.8146 172.458 27.8155 172.481 27.8172L172.472 27.8163C172.497 27.8176 172.521 27.8194 172.545 27.8207L172.537 27.819C172.561 27.8224 172.586 27.8241 172.61 27.8254H172.602C172.627 27.8267 172.651 27.8298 172.675 27.8341L172.668 27.8332C172.692 27.8367 172.716 27.8401 172.741 27.8436L172.732 27.8419L172.743 27.8436H172.741C172.788 27.8522 172.835 27.8605 172.883 27.87L172.872 27.867C172.922 27.8778 172.973 27.8895 173.023 27.9025L173.012 27.9008C175.083 28.4387 176.688 29.9793 177.997 31.5866C179.418 33.3289 180.653 35.2279 181.699 37.213C183.773 41.1499 185.278 45.6126 185.652 50.0553C184.633 47.2705 183.229 44.6211 181.851 41.9985C181.169 40.7015 180.463 39.4076 179.643 38.1906C179.312 37.6999 178.94 37.2403 178.593 36.7608C178.33 36.3964 178.012 35.7455 177.529 35.6395C177.415 36.3752 178.174 37.2442 178.501 37.8474C179.089 38.9302 179.618 40.0602 180.139 41.1767C181.344 43.7612 182.407 46.4097 183.676 48.9652C179.867 44.2164 175.239 39.7573 172.538 34.243ZM179.677 57.5478C176.733 54.2406 173.678 51.0052 171.093 47.4046C169.936 45.7922 168.882 44.0987 168.059 42.2924C167.311 40.647 166.438 38.6532 166.549 36.8096V36.8157C166.552 36.7859 166.554 36.756 166.556 36.7261V36.7322C166.558 36.7041 166.56 36.6764 166.564 36.6487L166.564 36.6513L166.565 36.6439L166.564 36.6487C166.568 36.6205 166.572 36.592 166.576 36.5638L166.575 36.5712C166.579 36.5422 166.583 36.5136 166.589 36.4846L166.587 36.4929C166.593 36.4648 166.598 36.4366 166.602 36.4085L166.601 36.4159C166.606 36.3908 166.611 36.3656 166.617 36.3405L166.617 36.3419L166.619 36.3336L166.617 36.3405C166.624 36.3146 166.631 36.2886 166.638 36.2622L166.636 36.2704C166.641 36.2436 166.649 36.2168 166.658 36.1912L166.655 36.2007C166.664 36.1748 166.672 36.1493 166.681 36.1233L166.678 36.1328C166.686 36.1103 166.694 36.0878 166.702 36.0653L166.701 36.0679L166.705 36.0575L166.702 36.0653C166.711 36.0415 166.721 36.019 166.732 35.996L166.727 36.0056C166.737 35.9814 166.748 35.9576 166.76 35.9342L166.755 35.9446C166.767 35.9216 166.779 35.8987 166.791 35.8753L166.786 35.8866C167.123 35.2444 167.917 35.0076 168.602 35.1076L168.599 35.1072L168.612 35.1089L168.602 35.1076C168.641 35.1141 168.68 35.1206 168.719 35.1267L168.707 35.1258C168.748 35.1318 168.788 35.14 168.828 35.1504L168.817 35.1478C168.858 35.1565 168.899 35.1664 168.939 35.1777L168.929 35.1747C168.968 35.1851 169.007 35.1963 169.045 35.2084L169.041 35.2071L169.05 35.2102L169.045 35.2084C169.085 35.221 169.124 35.2335 169.164 35.2465L169.155 35.2435C171.135 35.929 172.549 37.6388 173.729 39.2773C175.024 41.0754 176.236 42.945 177.334 44.8677C179.506 48.6696 181.345 52.9709 181.67 57.3764C180.175 54.666 178.872 51.8513 177.269 49.1997C176.598 48.0897 175.837 47.0476 175.108 45.9765C174.724 45.4135 174.099 44.2004 173.327 44.1005C173.188 44.821 174.029 45.7125 174.366 46.2898C175.038 47.4418 175.623 48.6666 176.214 49.8615C177.538 52.539 178.743 55.2727 180.044 57.9606C179.922 57.8235 179.8 57.6859 179.677 57.5478ZM183.033 60.5663C183.12 60.4131 183.208 60.2604 183.296 60.1076C184.02 60.8143 185.049 60.9645 186.003 61.1475C187.205 61.3782 188.404 61.6145 189.613 61.8023C192.059 62.1819 194.526 62.4277 196.999 62.5467C190.197 63.8948 183.598 66.4364 177.395 69.4783C179.394 66.5822 181.262 63.6039 183.033 60.5663ZM172.938 70.9679C173.39 71.4573 173.601 71.4634 173.181 72.0195C172.806 72.5171 172.426 73.0122 172.043 73.5047C171.316 74.4404 170.576 75.3661 169.821 76.2805C169.96 71.8624 168.738 67.4694 167.101 63.3984C168.913 66.011 170.775 68.6275 172.938 70.9679ZM166.718 79.9049C164.671 82.1882 162.55 84.4052 160.321 86.5145C161.211 80.2048 160.18 73.7925 158.033 67.8299C159.225 70.0742 160.538 72.2571 162.002 74.3378C162.698 75.3271 163.429 76.293 164.198 77.2278C164.948 78.1388 165.688 79.283 166.718 79.9049ZM157.344 89.2418C154.928 91.3775 152.424 93.4137 149.855 95.3663C150.865 88.9493 151.532 82.1782 150.407 75.7317C151.411 78.1254 152.496 80.4853 153.665 82.8036C154.747 84.951 155.792 87.3818 157.348 89.2388L157.344 89.2418ZM147.162 100.161C148.775 99.0011 150.37 97.8162 151.937 96.595C152.501 96.1553 153.274 95.2157 153.955 94.989C154.502 94.8068 155 95.4382 155.507 95.7242C157.095 96.6196 158.853 97.1454 160.576 97.7188C162.489 98.3559 164.389 99.0254 166.321 99.6035C159.812 99.1617 153.196 99.5953 146.738 100.464L147.162 100.161ZM157.008 92.4274C158.614 91.0335 160.193 89.6058 161.717 88.1231C162.931 89.1202 164.659 89.3215 166.145 89.6491C168.018 90.0624 169.889 90.4657 171.78 90.7912C166.731 90.8223 161.76 91.5757 156.826 92.5849L157.008 92.4274ZM165.609 84.1733C166.902 82.7936 168.161 81.3815 169.385 79.9408C169.481 79.8279 169.978 79.1069 170.115 79.0731C170.304 79.0268 171.078 79.5219 171.283 79.605C171.988 79.8906 172.715 80.1243 173.449 80.326C176.548 81.176 179.831 81.6529 183.013 82.0774C177.187 82.1622 171.316 83.0494 165.609 84.1733ZM183.682 72.7777C179.901 73.4623 176.212 74.5516 172.639 75.9494C173.363 75.0255 174.12 74.1067 174.758 73.1213C175.329 72.238 175.569 72.0995 176.615 72.2804C179.016 72.6959 181.513 72.7154 183.945 72.7297L183.682 72.7777ZM162.742 52.9185C161.976 50.8559 161.163 48.3186 161.595 46.0955L161.594 46.1029C161.618 45.9843 161.647 45.8666 161.682 45.751L161.679 45.7584C161.688 45.7286 161.697 45.6991 161.707 45.6697L161.705 45.6779C161.713 45.648 161.723 45.619 161.734 45.5901L161.732 45.5982C161.741 45.5692 161.751 45.5407 161.763 45.5121L161.759 45.5204C161.771 45.4922 161.783 45.4646 161.794 45.4364L161.791 45.4446C161.802 45.4165 161.814 45.3888 161.827 45.3615L161.822 45.3711C161.835 45.3443 161.849 45.3178 161.862 45.291L161.857 45.3005C161.869 45.2737 161.883 45.2473 161.898 45.2217L161.893 45.2313C161.907 45.2053 161.921 45.1793 161.936 45.1542L161.931 45.1638C161.945 45.1383 161.96 45.1131 161.976 45.0889L161.97 45.0993C161.985 45.0746 162.001 45.0504 162.017 45.0266L162.01 45.0361C162.027 45.0127 162.044 44.9894 162.06 44.9664L162.053 44.9759C162.07 44.9526 162.087 44.9297 162.105 44.9072L162.097 44.918C162.115 44.8959 162.133 44.8738 162.152 44.8522L162.143 44.863C162.193 44.8041 162.247 44.7483 162.304 44.6968L162.294 44.7055C162.311 44.6886 162.329 44.6726 162.348 44.657L162.348 44.6574L162.359 44.6479L162.348 44.657C162.371 44.6388 162.393 44.6207 162.416 44.6025L162.406 44.6112C162.428 44.5921 162.451 44.5743 162.476 44.5583L162.464 44.567C162.485 44.5527 162.505 44.538 162.526 44.5237C162.552 44.5081 162.578 44.4917 162.604 44.4757L162.592 44.4822C162.618 44.4674 162.643 44.4528 162.669 44.438L162.66 44.4428L162.672 44.4363L162.669 44.438C163.115 44.1961 163.633 44.1688 164.113 44.3233L164.1 44.3186C164.137 44.3307 164.174 44.3428 164.211 44.3549L164.204 44.3524L164.217 44.3571L164.211 44.3549C164.248 44.3688 164.286 44.3826 164.324 44.3965L164.31 44.3917C164.35 44.4077 164.39 44.4242 164.43 44.4415L164.418 44.4367C164.459 44.454 164.499 44.4727 164.539 44.4917L164.528 44.4856C166.62 45.4888 167.94 47.6219 169.005 49.5801C170.174 51.7319 171.205 53.9502 172.034 56.2534C172.868 58.5691 173.519 60.9502 174.011 63.3599C174.264 64.5989 174.465 65.8491 174.608 67.105C174.671 67.6529 174.71 68.1999 174.797 68.7434C174.848 69.0568 175.077 69.6025 174.778 69.8621C173.735 66.6341 172.605 63.4338 171.364 60.2755C170.749 58.708 170.145 57.1163 169.422 55.5943C169.119 54.9572 168.754 54.3518 168.433 53.7248C168.217 53.3045 167.98 52.6147 167.474 52.4606C167.253 52.9198 167.589 53.5395 167.733 53.9762C167.981 54.7248 168.163 55.4909 168.426 56.2361C168.954 57.7369 169.552 59.2153 170.101 60.7092C171.222 63.7576 172.217 66.8817 173.48 69.8747C169.47 64.5595 165.043 59.2429 162.742 52.9185ZM156.271 61.1025C155.418 58.8383 154.142 55.5471 155.06 53.0934L155.056 53.1059C155.071 53.0648 155.087 53.0237 155.104 52.9834L155.099 52.9968C155.115 52.9609 155.131 52.9254 155.149 52.8899L155.144 52.8982L155.151 52.8843L155.149 52.8899C155.165 52.8579 155.182 52.8263 155.2 52.7947L155.192 52.8095L155.224 52.7528L155.216 52.7696L155.25 52.7147L155.24 52.7294L155.275 52.6774L155.265 52.6922L155.301 52.6424L155.292 52.6584L155.327 52.6108L155.316 52.6268L155.353 52.5792L155.341 52.5961L155.38 52.5515L155.367 52.5662L155.406 52.5238L155.393 52.5398L155.434 52.4991L155.42 52.5139L155.449 52.4866L155.444 52.4905L155.461 52.4758L155.449 52.4866L155.487 52.4541L155.472 52.468L155.514 52.4325L155.497 52.4476L155.541 52.4143L155.524 52.4282L155.568 52.397L155.55 52.4109L155.596 52.3805L155.578 52.3935L155.605 52.3771L155.652 52.352L155.633 52.3629L155.664 52.3473L155.661 52.3485L155.681 52.3386L155.664 52.3473L155.709 52.326L155.69 52.3347L155.739 52.3157L155.719 52.3234L155.769 52.3057L155.749 52.3135L155.799 52.2958L155.779 52.3035L155.812 52.294L155.81 52.2944L155.83 52.2888L155.812 52.294L155.862 52.2806L155.843 52.2863L155.894 52.2745L155.875 52.2802L155.927 52.2685L155.908 52.2733L155.961 52.2646L155.941 52.2685L155.981 52.2628L155.977 52.2633L155.996 52.2607L155.981 52.2628L156.031 52.2581L156.013 52.2607L156.067 52.2559L156.049 52.2585L156.104 52.2559L156.086 52.2577C156.131 52.2564 156.176 52.2568 156.221 52.2594L156.204 52.2598C156.237 52.2603 156.27 52.262 156.303 52.2654L156.287 52.265C156.321 52.2689 156.354 52.2732 156.388 52.2767L156.372 52.2763C156.407 52.2815 156.441 52.2871 156.476 52.2932L156.461 52.2914C156.497 52.2962 156.532 52.3036 156.566 52.3135L156.553 52.3109C156.589 52.3183 156.625 52.3269 156.66 52.3373L156.648 52.3347C156.684 52.3451 156.72 52.3551 156.755 52.365L156.744 52.3624C156.78 52.3728 156.815 52.3845 156.85 52.3975L156.843 52.3949L156.853 52.3988L156.85 52.3975C156.885 52.4096 156.919 52.423 156.954 52.4364L156.943 52.4325C161.312 54.1246 163.713 59.2122 165.403 63.217C167.37 67.8818 168.485 72.7305 168.372 77.7982C168.316 77.6878 168.261 77.5771 168.208 77.4659L168.215 77.4793L168.21 77.4676C168.208 77.4637 168.206 77.4602 168.204 77.4568L168.208 77.4628L168.204 77.4546L168.207 77.4602C166.906 73.9734 165.643 70.4715 164.223 67.0301C163.545 65.3856 162.88 63.7 162.029 62.1347C161.71 61.5492 161.354 60.9844 161.025 60.4045C160.802 60.0115 160.483 59.2707 159.974 59.1746C159.781 59.6705 160.261 60.3837 160.459 60.8039C160.808 61.547 161.056 62.332 161.36 63.0941C162.119 64.9974 162.821 66.915 163.492 68.8508C164.134 70.7004 164.778 72.5505 165.498 74.3724C165.833 75.2228 166.179 76.0719 166.557 76.905C166.753 77.3382 166.962 77.7658 167.21 78.173C167.523 78.6876 167.749 78.7364 167.324 79.2207C167.183 79.0506 167.012 78.9005 166.855 78.7416L166.863 78.7507C166.856 78.7429 166.849 78.7351 166.842 78.7273C166.847 78.7312 166.851 78.7356 166.855 78.7395C162.532 73.5091 158.618 67.4746 156.271 61.1025ZM148.854 67.1708C148.364 65.0264 147.584 62.361 148.08 60.1552L148.078 60.1634C148.086 60.1318 148.093 60.1007 148.101 60.0695L148.099 60.0777C148.107 60.047 148.115 60.0163 148.123 59.9856L148.12 59.9951C148.129 59.9644 148.138 59.934 148.148 59.9042L148.144 59.9146C148.155 59.886 148.164 59.857 148.174 59.8285L148.17 59.838L148.174 59.8276V59.8285C148.391 59.1975 148.953 58.7561 149.636 58.9642L149.623 58.9604C149.648 58.9673 149.673 58.9742 149.698 58.9824L149.687 58.9785C149.712 58.9863 149.737 58.9945 149.761 59.0036L149.751 58.9997C149.776 59.0079 149.801 59.0166 149.826 59.0257L149.816 59.0226C152.232 59.9436 153.871 62.2247 154.966 64.453C156.087 66.735 156.961 69.1702 157.658 71.6101C158.363 74.0764 158.855 76.6046 159.081 79.1597C159.201 80.5294 159.258 81.9142 159.199 83.2887C159.141 84.6229 158.853 85.9407 158.856 87.2779C158.287 83.6734 157.166 80.1187 156.138 76.6219C155.617 74.8523 155.057 73.0936 154.418 71.3621C154.14 70.6074 153.822 69.8669 153.555 69.1087C153.391 68.6426 153.238 67.7857 152.736 67.5451C152.532 68.0822 153.026 68.8122 153.2 69.3052C153.527 70.2313 153.753 71.2076 153.99 72.1592C154.466 74.066 154.86 75.9914 155.207 77.925C155.545 79.8084 155.856 81.6983 156.307 83.5592C156.529 84.4771 156.771 85.3933 157.022 86.3038C157.246 87.1178 157.71 88.0154 157.832 88.8074C156.19 85.2561 154.258 81.8601 152.705 78.2647C151.153 74.671 149.738 70.9891 148.854 67.1708ZM146.72 96.3323C144.775 92.1163 143.218 87.7189 142.093 83.2178C141.088 79.1961 140.3 74.9861 140.652 70.8272C140.766 69.4752 140.934 66.313 142.977 66.5524C144.662 66.7497 146.145 68.737 146.918 70.066C148.98 73.6125 149.297 78.1959 149.331 82.2038C149.353 84.6874 149.177 87.1671 148.969 89.6404C148.86 90.937 148.741 92.2327 148.637 93.5292C148.569 94.3692 148.829 96.1393 148.056 96.7062C147.576 92.7576 146.898 88.8247 146.293 84.893C146.014 83.0732 145.698 81.2565 145.249 79.4691C145.049 78.6733 144.804 77.8895 144.616 77.0911C144.479 76.5077 144.392 75.6859 143.922 75.2553C143.674 75.8079 143.96 76.5549 144.042 77.1166C144.158 77.9216 144.198 78.7416 144.272 79.5513C144.443 81.4339 144.674 83.3112 144.916 85.186C145.398 88.9363 145.818 92.7684 146.768 96.4357L146.72 96.3323ZM136.815 106.996C138.293 106.088 139.764 105.17 141.215 104.219C141.665 104.876 142.542 105.231 143.223 105.596C144.112 106.073 145.018 106.488 145.953 106.868C142.747 106.811 139.523 106.932 136.335 107.288C136.495 107.19 136.655 107.093 136.815 106.996ZM132.816 106.158C131.628 101.384 130.37 96.6534 129.466 91.8129C128.661 87.503 128.02 82.6854 129.213 78.3802C129.686 76.6743 130.831 74.8489 132.872 75.0839C134.903 75.3176 136.025 77.5502 136.619 79.2519C137.986 83.1693 137.637 87.7189 137.262 91.7787C137.02 94.3982 136.606 97.0005 136.064 99.575C135.806 100.804 135.518 102.028 135.206 103.245C135.105 103.638 134.985 105.462 134.546 105.587C134.07 99.5923 134.788 93.5708 134.332 87.5813C134.29 87.0187 134.229 86.4587 134.201 85.8953C134.181 85.4893 134.243 84.7809 133.979 84.4369C133.596 83.9383 133.5 84.6216 133.454 85.0085C133.394 85.5179 133.433 86.0406 133.397 86.553C133.183 89.5737 133.116 92.5949 133.086 95.6225C133.052 99.0202 132.972 102.533 133.596 105.887L133.594 105.872L133.6 105.91L133.599 105.897C133.724 106.247 133.172 106.395 132.92 106.542C132.884 106.415 132.85 106.287 132.816 106.158ZM124.914 113.781C126.418 112.976 127.916 112.159 129.405 111.327C130.059 110.962 130.904 110.236 131.631 110.066C131.86 109.796 132.035 109.82 132.156 110.136C132.301 110.303 132.451 110.465 132.608 110.621C132.887 110.902 133.184 111.164 133.489 111.416C136.025 113.512 139.059 115.261 142.076 116.571C136.508 114.979 130.59 114.105 124.806 113.839L124.914 113.781ZM121.814 111.961C120.392 106.29 118.827 100.608 117.983 94.815C117.616 92.298 117.441 89.7274 117.774 87.1966C118.008 85.4244 118.529 81.819 120.976 81.8143L120.963 81.8147C120.994 81.8147 121.024 81.8156 121.054 81.8173L121.042 81.8178C121.073 81.8182 121.103 81.8203 121.134 81.8238L121.12 81.8229C121.151 81.8264 121.182 81.8294 121.213 81.8329L121.2 81.8311C121.231 81.835 121.261 81.8394 121.291 81.8441L121.279 81.8424C121.31 81.8476 121.341 81.8532 121.372 81.8597L121.358 81.8571C121.389 81.8627 121.42 81.8692 121.451 81.8775L121.438 81.8757C121.469 81.8826 121.5 81.8909 121.531 81.9004L121.518 81.8965C121.55 81.9047 121.581 81.9142 121.611 81.9251L121.598 81.9211C121.628 81.9307 121.657 81.9407 121.686 81.951L121.679 81.948L121.692 81.9527L121.686 81.9506C121.738 81.9705 121.79 81.9917 121.841 82.0142C121.872 82.0281 121.903 82.0428 121.934 82.0583L121.922 82.0536C121.953 82.0692 121.984 82.0852 122.015 82.1008L122.003 82.096C122.031 82.1112 122.059 82.1263 122.087 82.1414L122.085 82.1406L122.095 82.1466L122.086 82.1419C122.117 82.1596 122.147 82.1782 122.177 82.1977L122.165 82.1908C122.197 82.2103 122.228 82.2306 122.258 82.2518L122.248 82.2449C122.276 82.2648 122.304 82.2851 122.332 82.305L122.329 82.3029C122.36 82.325 122.391 82.3474 122.421 82.3708L122.411 82.3639C122.441 82.3881 122.471 82.4119 122.501 82.4362L122.491 82.4292C122.521 82.4552 122.552 82.4807 122.582 82.5067L122.572 82.4998C124.38 84.0945 124.968 86.6729 125.289 88.9502C125.645 91.4827 125.692 94.0429 125.55 96.5937C125.405 99.1812 125.086 101.759 124.724 104.325C124.536 105.663 124.293 106.989 124.046 108.317C123.823 109.521 123.694 110.791 123.159 111.91C123.493 108.17 123.129 104.325 123.014 100.579C122.956 98.6627 122.873 96.7477 122.772 94.8332C122.733 94.1031 122.686 93.3774 122.695 92.6464C122.7 92.179 122.806 91.3039 122.379 90.9686C121.943 91.31 122.065 92.1868 122.059 92.6628C122.047 93.537 121.965 94.4121 121.92 95.2854C121.817 97.2736 121.751 99.2617 121.755 101.252C121.758 103.195 121.815 105.138 121.924 107.078C121.979 108.062 122.048 109.044 122.179 110.021C122.239 110.473 122.312 110.923 122.398 111.37C122.431 111.544 122.571 111.875 122.538 112.045C122.479 112.354 122.272 112.372 121.924 112.552C121.888 112.354 121.853 112.157 121.814 111.961ZM114.498 119.095C116.569 118.082 118.635 117.057 120.683 115.998C120.819 116.535 121.348 116.916 121.741 117.268C122.309 117.776 122.866 118.297 123.454 118.783C124.779 119.877 126.199 120.852 127.657 121.763C123.191 120.299 118.473 119.6 113.78 119.445C114.02 119.329 114.259 119.212 114.498 119.095ZM109.434 118.074C108.115 112.398 107.297 106.558 107.218 100.728C107.181 98.0131 107.338 95.2845 107.854 92.6139C108.233 90.6526 108.817 86.6149 111.214 86.0458L111.201 86.0493C111.232 86.0428 111.264 86.0359 111.296 86.0294L111.29 86.0303L111.303 86.0281L111.296 86.0294C111.328 86.0238 111.361 86.0186 111.393 86.0142L111.381 86.0169C111.416 86.0121 111.451 86.0082 111.486 86.0047L111.474 86.0061C111.509 86.0022 111.544 86 111.579 85.9991L111.568 85.9996L111.581 85.9991H111.579C111.613 85.9983 111.647 85.9974 111.681 85.9965L111.665 85.9982C111.703 85.9978 111.741 85.9987 111.778 86.0013L111.763 86.0008C111.795 86.0039 111.827 86.0065 111.859 86.0095L111.855 86.0091L111.872 86.0108L111.859 86.0095C111.893 86.013 111.927 86.0182 111.962 86.0247L111.946 86.0221C111.977 86.0277 112.008 86.0337 112.038 86.0407L112.033 86.0393L112.05 86.0433L112.038 86.0407C112.099 86.0554 112.159 86.0731 112.218 86.0934L112.203 86.0896C112.231 86.0991 112.259 86.1099 112.287 86.1208L112.284 86.1194L112.299 86.1255L112.287 86.1208C112.318 86.1337 112.349 86.1475 112.379 86.1627C112.405 86.1752 112.431 86.1887 112.457 86.2034L112.444 86.1973C112.475 86.2129 112.505 86.2307 112.534 86.2501L112.521 86.2419C112.552 86.2601 112.582 86.2795 112.611 86.2999L112.6 86.2921C112.629 86.312 112.657 86.3328 112.685 86.354L112.675 86.3462C112.704 86.3679 112.733 86.3903 112.761 86.4133L112.75 86.4051C112.779 86.4284 112.807 86.4527 112.834 86.4773L112.825 86.4691C112.853 86.4929 112.88 86.5184 112.905 86.5448L112.898 86.5379C112.924 86.5648 112.951 86.5911 112.978 86.618L112.97 86.6098C112.996 86.6388 113.022 86.6673 113.048 86.6959L113.042 86.6876C113.067 86.7171 113.092 86.7465 113.117 86.7768L113.112 86.7699C113.137 86.7993 113.161 86.8291 113.184 86.8594L113.181 86.8551L113.186 86.862L113.184 86.8594C114.764 88.9311 114.901 92.1513 115.054 94.6432C115.22 97.3718 115.207 100.118 114.992 102.844C114.783 105.5 114.373 108.138 113.74 110.728C113.397 112.131 112.995 113.519 112.528 114.886C112.341 115.434 111.936 117.577 111.298 117.814C111.39 114.098 111.525 110.382 111.714 106.669C111.807 104.846 111.959 103.023 112.024 101.199C112.052 100.415 112.011 99.6304 112.039 98.8467C112.056 98.3529 112.219 97.5323 111.839 97.1268C111.386 97.4752 111.428 98.3494 111.355 98.8562C111.228 99.742 111.022 100.614 110.906 101.503C110.636 103.55 110.468 105.616 110.318 107.675C110.168 109.725 110.072 111.778 110.035 113.833C110.017 114.872 109.987 115.926 110.06 116.964C110.112 117.703 110.334 118.277 109.575 118.633C109.526 118.447 109.478 118.261 109.434 118.074ZM103.797 124.177C105.089 123.576 106.381 122.975 107.671 122.368C107.786 122.313 108.519 121.884 108.637 121.912C108.746 121.938 109.203 122.583 109.285 122.673C109.741 123.174 110.231 123.645 110.739 124.092C112.801 125.909 115.172 127.332 117.472 128.824C112.995 126.511 107.744 124.733 102.652 124.705C103.034 124.53 103.416 124.353 103.797 124.177ZM98.1978 123.119C97.247 118.508 96.3765 113.865 96.0431 109.164C95.7349 104.822 95.7201 100.226 97.1076 96.0497C97.5583 94.6925 98.305 92.2929 99.9959 92.0419C102.08 91.7329 102.905 94.7484 103.237 96.2306C104.2 100.54 104.206 105.185 103.65 109.547C103.331 112.053 102.806 114.532 102.103 116.96C101.767 118.12 101.391 119.27 100.978 120.405C100.785 120.936 100.573 121.459 100.396 121.994C100.284 122.333 100.199 122.927 99.8647 123.121C99.8229 119.297 100.141 115.455 100.205 111.629C100.237 109.707 100.247 107.784 100.172 105.863C100.142 105.109 100.105 104.363 100.115 103.609C100.123 103.073 100.198 102.311 99.8425 101.856C99.4354 102.316 99.506 103.16 99.475 103.721C99.4314 104.505 99.3207 105.283 99.241 106.063C99.0404 108.021 98.9484 109.986 98.8673 111.952C98.7837 113.98 98.7213 116.01 98.6402 118.038C98.6014 119.012 98.5404 119.986 98.5094 120.961C98.4933 121.469 98.4964 121.977 98.5308 122.483C98.5644 122.984 98.8403 123.587 98.3539 123.806C98.2985 123.578 98.2479 123.349 98.1978 123.119ZM85.0541 132.692C89.085 130.883 93.1124 129.065 97.1328 127.232C99.0308 131.594 103.208 134.891 106.857 137.78C99.7344 134.078 91.1787 133.399 83.2686 133.496C83.8637 133.228 84.4591 132.96 85.0541 132.692ZM83.5742 130.431C83.5764 130.435 83.5759 130.437 83.5738 130.438L83.5742 130.431ZM82.0467 130.255C81.535 125.436 81.4408 120.563 81.8528 115.733C82.239 111.206 82.8471 106.188 85.4242 102.308C86.2664 101.039 88.0331 98.6454 89.8657 99.2214C91.5492 99.7507 92.0959 102.44 92.3313 103.91C92.9877 108.009 91.9285 112.416 90.6238 116.293C89.7533 118.881 88.6068 121.367 87.3854 123.808C86.7725 125.032 86.14 126.245 85.5101 127.461C85.0267 128.394 84.5899 129.977 83.5746 130.437C84.0009 126.443 84.5711 122.464 85.2743 118.508C85.6204 116.561 86.0593 114.628 86.3941 112.68C86.5279 111.902 86.6138 111.119 86.789 110.349C86.898 109.87 87.2285 108.964 86.8911 108.504C86.3553 108.74 86.2171 109.675 86.0598 110.161C85.7607 111.084 85.3889 111.981 85.1134 112.912C84.4822 115.048 84.0127 117.249 83.5969 119.435C83.1967 121.538 82.8955 123.659 82.681 125.788C82.5729 126.862 82.4888 127.938 82.4474 129.016C82.4308 129.444 82.7063 130.994 82.1082 131.102C82.0938 130.819 82.0825 130.535 82.0467 130.255ZM73.5028 137.953C74.8699 137.319 76.2386 136.689 77.6092 136.063C77.7264 136.009 78.5198 135.56 78.6371 135.593C78.7412 135.623 79.1959 136.381 79.2709 136.478C79.7072 137.047 80.1819 137.586 80.6832 138.099C82.7076 140.171 85.1596 141.813 87.6195 143.329C85.1008 142.237 82.5154 141.3 79.8894 140.496C77.345 139.717 74.7108 138.917 72.0565 138.625C72.5382 138.4 73.0207 138.176 73.5028 137.953ZM52.453 144.03C52.4897 144.326 52.5938 144.709 52.5886 145.005C52.5794 145.504 52.477 145.422 51.9875 145.685C51.3781 146.012 50.7691 146.341 50.1614 146.672C48.8907 147.363 47.6244 148.062 46.3638 148.771C48.5106 144.002 50.3759 139.052 51.5468 133.951C51.6858 137.322 51.861 140.667 52.4495 143.996L52.4469 143.983L52.453 144.03ZM61.8866 140.593C60.8832 141.09 59.8805 141.59 58.8814 142.096C62.3535 136.278 64.8609 130.032 65.9507 123.34C65.9977 126.738 65.9786 130.145 66.3134 133.532C66.3975 134.384 66.4986 135.236 66.6459 136.08C66.7043 136.415 66.7706 136.75 66.8399 137.083C66.8865 137.306 66.9345 137.528 66.9838 137.749C67.1625 138.037 67.0792 138.2 66.734 138.237C66.2035 138.718 65.1281 139.009 64.4685 139.33C63.6072 139.748 62.7463 140.169 61.8866 140.593ZM40.322 152.283C38.3473 153.47 36.3879 154.682 34.4624 155.946C36.7854 151.052 38.3878 145.88 39.0282 140.502C39.2828 142.497 39.5966 144.483 39.8983 146.471C40.169 148.257 40.3268 150.142 41.1777 151.771C40.8921 151.942 40.6071 152.112 40.322 152.283ZM28.4913 160.135C26.5776 161.571 24.7237 163.081 22.9233 164.654C24.7882 159.719 26.0842 154.582 26.4508 149.314C26.6548 151.265 26.8549 153.218 27.1901 155.152C27.3422 156.03 27.5223 156.9 27.7577 157.76C27.9582 158.493 28.0894 159.453 28.6722 159.999L28.4913 160.135ZM22.2241 169.606C21.7172 169.638 21.2102 169.677 20.705 169.729C23.6609 166.866 26.8213 164.22 30.1517 161.795C32.6041 166.524 37.2945 169.721 41.8494 172.259C35.5544 170.448 28.7803 169.51 22.2241 169.606ZM33.7436 159.282C37.2366 156.973 40.8084 154.794 44.4448 152.714C44.3433 153.547 45.2531 154.563 45.6916 155.204C46.5107 156.401 47.488 157.487 48.5281 158.498C50.6758 160.585 53.0899 162.431 55.4704 164.246C52.0812 162.674 48.4923 161.555 44.8441 160.751C41.2561 159.961 37.3983 159.187 33.7088 159.306L33.7436 159.282ZM48.4016 151.037C48.1017 151.02 47.8018 151.003 47.5015 150.991C48.3363 150.528 49.1736 150.069 50.0132 149.614C50.433 149.387 50.8532 149.161 51.2743 148.935C51.4849 148.823 51.6954 148.71 51.906 148.598C52.1427 148.342 52.3327 148.374 52.4757 148.696C52.8519 148.905 53.2158 149.426 53.5397 149.719C53.9063 150.051 54.283 150.371 54.6644 150.686C55.426 151.313 56.2119 151.91 57.0005 152.504C54.2159 151.771 51.2782 151.207 48.4016 151.037ZM57.3496 145.768C60.4193 144.213 63.5056 142.691 66.6085 141.202C66.8491 141.939 67.4149 142.524 67.9097 143.101C68.5426 143.84 69.1803 144.57 69.8582 145.269C71.2566 146.71 72.7653 148.045 74.3507 149.28C68.9463 147.229 63.1085 145.887 57.3074 145.79L57.3496 145.768ZM68.0579 113.245C68.5661 110.17 69.2706 106.343 71.6698 104.106C72.5146 103.319 73.7042 102.742 74.8856 102.988C76.3916 103.301 77.2556 104.783 77.6746 106.134C78.627 109.204 78.4352 112.773 78.0285 115.916C77.5774 119.403 76.6436 122.824 75.3781 126.104C74.6375 128.025 73.7775 129.888 72.8067 131.704C72.3024 132.648 71.781 133.582 71.2862 134.531C70.8948 135.281 70.5997 136.4 69.7714 136.79C70.094 132.556 71.0177 128.344 71.8006 124.176C72.1946 122.079 72.6423 119.986 72.9719 117.878C73.1101 116.995 73.1763 116.104 73.3036 115.221C73.3934 114.596 73.6293 113.678 73.2086 113.118C72.5177 113.564 72.478 114.717 72.2923 115.431C72.0085 116.524 71.7038 117.598 71.471 118.704C70.9793 121.041 70.4916 123.38 70.0461 125.726C69.6211 127.962 69.2357 130.207 68.9428 132.463C68.8015 133.55 68.618 134.662 68.6137 135.76C68.6102 136.595 68.8347 137.235 67.982 137.64C67.4541 133.587 67.4096 129.472 67.3543 125.391C67.2994 121.342 67.3517 117.243 68.0579 113.245ZM54.8196 115.763C55.4011 114.209 56.1308 112.676 57.2219 111.407C58.0475 110.447 59.2929 109.297 60.6591 109.318C63.4855 109.361 64.346 113.899 64.5548 115.989C65.1756 122.201 63.3483 128.829 60.9076 134.495C60.1569 136.238 59.309 137.937 58.3893 139.597C57.5837 141.051 56.766 143.172 55.2233 143.974C55.9948 139.766 56.7899 135.562 57.6047 131.362C58.0057 129.296 58.4316 127.233 58.82 125.163C58.9917 124.248 59.0828 123.321 59.2437 122.405C59.3675 121.699 59.6413 120.829 59.33 120.138C58.6626 120.67 58.5667 121.765 58.3282 122.526C57.9743 123.655 57.6334 124.771 57.3483 125.921C56.7555 128.313 56.1971 130.711 55.7049 133.125C55.2307 135.453 54.8039 137.791 54.443 140.139C54.2939 141.109 54.13 142.085 54.0533 143.064C54.0263 143.406 54.1029 144.7 53.6396 144.806C53.6797 142.439 53.2481 140.037 53.1501 137.667C53.045 135.13 52.9569 132.588 52.9351 130.048C52.8937 125.245 53.1505 120.317 54.8196 115.763ZM40.8128 124.649C41.4375 121.573 42.4105 117.553 44.9854 115.464C45.8986 114.724 47.1789 114.312 48.2813 114.9C49.6008 115.604 50.1723 117.297 50.4535 118.658C51.103 121.805 50.9247 125.244 50.5751 128.415C50.1815 131.985 49.3476 135.482 48.2648 138.905C47.6318 140.907 46.9226 142.884 46.1955 144.854C45.8211 145.867 45.4414 146.879 45.0647 147.892C44.7779 148.662 44.614 149.764 43.8411 150.21C43.7845 145.968 44.036 141.728 44.444 137.506C44.6449 135.428 44.9253 133.358 45.1284 131.28C45.2125 130.42 45.2648 129.561 45.4047 128.709C45.4989 128.134 45.7822 127.171 45.4182 126.638C44.8681 127.034 44.8533 128.099 44.7399 128.697C44.5368 129.769 44.2312 130.82 44.0202 131.892C43.58 134.129 43.2753 136.399 42.9745 138.658C42.6733 140.92 42.4357 143.193 42.393 145.476C42.373 146.556 42.4227 147.632 42.441 148.712C42.4479 149.135 42.4379 149.561 42.485 149.982C42.5521 150.582 42.8254 150.799 42.2731 151.123C42.25 150.988 42.2278 150.853 42.2073 150.717L42.2108 150.73L42.2056 150.693L42.2147 150.726C41.1711 146.46 40.6799 142.028 40.3115 137.659C39.948 133.338 39.9079 128.913 40.8128 124.649ZM27.3679 134.413C27.6822 131.138 28.1404 127.305 30.3535 124.687C31.0933 123.812 32.2284 122.963 33.4459 123.082C34.9053 123.224 35.8107 124.73 36.2994 125.949C37.5487 129.068 37.526 132.839 37.4057 136.141C37.2728 139.774 36.744 143.415 35.8212 146.934C35.2898 148.96 34.5945 150.929 33.7937 152.865C33.3635 153.906 32.9115 154.937 32.469 155.973C32.0702 156.907 31.8112 157.734 30.9516 158.342C30.8766 153.961 31.462 149.537 31.9681 145.191C32.2253 142.984 32.5327 140.783 32.8073 138.578C32.9385 137.525 33.0422 136.468 33.1591 135.413C33.238 134.701 33.6922 133.353 33.3452 132.692C32.7746 133.197 32.7397 134.293 32.6168 134.985C32.4232 136.076 32.1137 137.146 31.8766 138.229C31.3213 140.763 30.9154 143.333 30.5641 145.902C30.2297 148.349 29.9839 150.81 29.9032 153.279C29.8627 154.519 29.8679 155.758 29.9481 156.996C29.9795 157.484 30.1286 158.053 30.0763 158.538C30.0179 159.078 29.7903 159.176 29.36 159.491C29.3422 158.911 29.0445 158.273 28.9072 157.706L28.9106 157.717C28.1098 153.93 27.8431 150.051 27.5353 146.201C27.2219 142.287 26.9878 138.33 27.3679 134.413ZM17.3694 169.536C15.4679 162.606 14.0264 155.417 13.6576 148.231C13.4806 144.78 13.6135 141.252 14.3524 137.866C14.692 136.309 15.1881 134.777 15.9605 133.376C16.603 132.21 17.5468 130.784 18.9779 130.546L18.9583 130.55C18.9975 130.544 19.0372 130.54 19.0769 130.537L19.0572 130.538C19.0969 130.534 19.1366 130.532 19.1763 130.531L19.1544 130.532C19.1941 130.531 19.2338 130.53 19.2735 130.532L19.2525 130.532C19.2926 130.533 19.3327 130.534 19.3728 130.536L19.3506 130.536C19.3846 130.539 19.4182 130.542 19.4517 130.546L19.4491 130.545L19.4709 130.548L19.4517 130.546C19.4849 130.55 19.5176 130.555 19.5503 130.561L19.5485 130.561L19.5694 130.564L19.5503 130.561C19.5904 130.57 19.6305 130.578 19.6706 130.587L19.6496 130.583C19.691 130.593 19.7321 130.604 19.773 130.616L19.7521 130.61C19.7882 130.622 19.8244 130.634 19.8606 130.645L19.8563 130.644L19.8763 130.651L19.8606 130.645C19.8972 130.659 19.9334 130.674 19.9696 130.688L19.9631 130.685L19.9818 130.693L19.9696 130.688C20.0101 130.705 20.0502 130.723 20.0899 130.742L20.0708 130.735C20.1148 130.754 20.1579 130.776 20.2002 130.799L20.1823 130.79C20.2207 130.812 20.2595 130.834 20.2979 130.856L20.2961 130.854L20.3131 130.864L20.2979 130.856C20.341 130.883 20.3846 130.911 20.4278 130.938L20.4121 130.929C20.4574 130.959 20.5019 130.99 20.545 131.022L20.5302 131.012C23.1173 132.906 23.8632 137.148 24.2302 140.101C24.6191 143.231 24.6504 146.415 24.4081 149.557C24.1635 152.729 23.6174 155.872 22.8039 158.947C22.3427 160.691 21.7887 162.403 21.1884 164.104C20.6418 165.654 20.2342 167.102 19.0376 168.293C18.926 163.382 19.0542 158.47 19.2491 153.563C19.345 151.146 19.4531 148.731 19.5664 146.315C19.6074 145.438 19.6549 144.572 19.7564 143.7C19.8192 143.161 20.0616 142.124 19.6466 141.667C19.1187 142.079 19.2242 143.26 19.1837 143.84C19.1069 144.941 18.9234 146.035 18.7896 147.13C18.4688 149.754 18.2356 152.385 18.0634 155.022C17.8934 157.625 17.777 160.231 17.7412 162.839C17.7242 164.062 17.7334 165.285 17.7543 166.509C17.7674 167.267 17.5752 168.57 18.1789 169.163C17.9422 169.406 17.7077 169.651 17.4736 169.896C17.4383 169.776 17.4038 169.656 17.3694 169.536ZM50.8615 177.879C52.7542 179.165 55.0419 180.954 55.7459 183.228L55.7455 183.227C55.7638 183.285 55.7799 183.343 55.7943 183.402L55.7938 183.4L55.796 183.411L55.7943 183.402C55.7995 183.427 55.8048 183.451 55.8113 183.476L55.8091 183.465C55.8152 183.49 55.82 183.516 55.8239 183.541L55.8226 183.53C55.827 183.555 55.8313 183.58 55.8352 183.605L55.8326 183.592C55.837 183.617 55.8405 183.641 55.844 183.666L55.8418 183.653C55.8448 183.674 55.8475 183.693 55.8497 183.714V183.713L55.8509 183.727L55.8497 183.714C55.8505 183.738 55.8522 183.762 55.8557 183.786L55.8536 183.771C55.8562 183.794 55.8575 183.818 55.8575 183.841L55.8571 183.827C55.8579 183.85 55.8584 183.874 55.8592 183.897L55.8575 183.882C55.8575 183.905 55.8575 183.928 55.8571 183.95L55.8566 183.934C55.8562 183.956 55.8553 183.979 55.8531 184.001L55.8536 183.986C55.8527 184.002 55.8514 184.018 55.8497 184.035C55.8471 184.048 55.8453 184.062 55.8449 184.076L55.8475 184.059L55.8449 184.076V184.076L55.8414 184.099L55.8431 184.082L55.8366 184.123L55.8392 184.105L55.8318 184.145L55.8344 184.127L55.8292 184.157L55.8309 184.15L55.827 184.169L55.8292 184.157L55.8231 184.183L55.8266 184.172L55.8217 184.19L55.8231 184.183L55.8152 184.212L55.8209 184.193L55.8095 184.233L55.8143 184.215L55.8061 184.244L55.8087 184.236L55.803 184.254L55.8061 184.244L55.796 184.274L55.8017 184.256C55.7948 184.275 55.7882 184.295 55.7812 184.315L55.7869 184.297L55.7721 184.336L55.7791 184.316L55.7686 184.342L55.7712 184.337L55.7634 184.356L55.7686 184.342L55.7533 184.375L55.7612 184.356L55.7463 184.387L55.7524 184.375L55.7433 184.393L55.7463 184.387L55.7333 184.412L55.742 184.395L55.7232 184.431L55.732 184.414L55.7128 184.447L55.722 184.433L55.7111 184.451L55.7128 184.447L55.6988 184.47L55.7097 184.452L55.6866 184.488L55.6975 184.471L55.6731 184.507L55.684 184.488L55.6622 184.52L55.6709 184.509L55.6587 184.526L55.6622 184.52L55.6448 184.545L55.657 184.528L55.6308 184.561L55.6426 184.547L55.6295 184.563L55.6308 184.561L55.6143 184.581L55.6264 184.566L55.5981 184.6L55.6103 184.585C55.5829 184.617 55.5537 184.647 55.5232 184.677L55.5375 184.662C55.5231 184.676 55.5084 184.691 55.4931 184.703L55.4944 184.702L55.48 184.715L55.4931 184.703C55.473 184.72 55.4525 184.737 55.4329 184.754L55.4473 184.741C55.4268 184.757 55.4063 184.773 55.3863 184.789L55.3963 184.782L55.3819 184.793L55.3863 184.789C55.3667 184.804 55.3466 184.818 55.3265 184.832L55.3401 184.822C55.3156 184.839 55.2913 184.856 55.266 184.872L55.279 184.862C55.2546 184.878 55.2298 184.893 55.2054 184.908L55.2137 184.903L55.2002 184.911L55.2054 184.908C55.1797 184.922 55.1535 184.936 55.1282 184.95L55.1409 184.944C52.6618 186.285 49.593 185.878 46.9505 185.334C43.8651 184.699 40.8254 183.842 37.8856 182.714C34.6791 181.485 31.5889 179.962 28.6356 178.218C25.6182 176.437 22.3031 174.579 19.882 172.02C26.0528 174.376 32.5104 175.868 38.8286 177.768C39.8673 178.081 41.0473 178.705 42.1254 178.845C42.6833 178.918 42.9366 178.761 42.4196 178.357C42.0185 178.044 41.4427 177.926 40.9789 177.737C38.0073 176.526 35.0618 175.31 32.0143 174.292C28.4298 173.094 24.7834 171.797 21.1047 170.92C26.225 170.91 31.3321 171.465 36.3565 172.431C41.4318 173.406 46.556 174.955 50.8615 177.879ZM62.7851 171.118C63.9267 172.184 65.2706 173.448 65.7196 174.999L65.7152 174.987C65.7248 175.018 65.7335 175.049 65.741 175.081L65.7375 175.068C65.7453 175.099 65.7528 175.13 65.7597 175.162L65.7562 175.148C65.7623 175.176 65.768 175.204 65.7741 175.232L65.7732 175.227L65.7754 175.239L65.7741 175.232C65.7785 175.26 65.7832 175.288 65.788 175.316L65.7868 175.302C65.7911 175.331 65.7955 175.361 65.7985 175.39L65.7972 175.377C65.8011 175.405 65.8042 175.434 65.8068 175.462L65.8042 175.448C65.8935 176.228 65.4171 176.756 64.6852 176.969L64.6987 176.966C64.6642 176.976 64.6302 176.986 64.5963 176.997L64.6107 176.992C61.9887 177.721 58.7942 176.776 56.2729 176.043C53.1901 175.147 50.1527 173.995 47.2269 172.681C41.431 170.077 35.7301 166.503 31.721 161.512C35.6093 163.611 39.7409 165.212 43.8655 166.784C45.8725 167.549 47.8799 168.312 49.8711 169.117C50.7129 169.457 51.5642 169.777 52.3776 170.181C52.7865 170.384 53.6012 170.92 54.0807 170.677C53.9861 170.176 53.0507 169.915 52.664 169.75C51.8611 169.407 51.0856 169.002 50.3009 168.619C48.2874 167.638 46.2652 166.674 44.2352 165.728C40.2793 163.883 36.3469 162.009 32.3025 160.363C43.0373 161.482 54.6104 163.481 62.7851 171.118ZM72.665 163.25C73.5861 164.422 74.5512 165.959 74.6018 167.5L74.6 167.481C74.6013 167.523 74.6022 167.564 74.6022 167.606L74.6005 167.585C74.6018 167.625 74.6013 167.666 74.5996 167.707L74.5992 167.684C74.5983 167.724 74.5957 167.765 74.5918 167.805L74.5922 167.781C74.5896 167.82 74.5861 167.859 74.5809 167.897L74.5822 167.872C74.5774 167.91 74.5717 167.948 74.5656 167.986L74.5691 167.961C74.563 167.997 74.5556 168.034 74.5482 168.07L74.5526 168.044C74.5438 168.081 74.5351 168.116 74.5259 168.153L74.5325 168.125C74.522 168.16 74.512 168.194 74.5019 168.229L74.5085 168.201C74.4985 168.236 74.4867 168.27 74.4723 168.303L74.4819 168.273C74.4692 168.307 74.4558 168.34 74.4418 168.373L74.4522 168.343C74.4383 168.376 74.423 168.408 74.4069 168.439L74.4209 168.41C74.4048 168.441 74.3877 168.473 74.3703 168.504L74.3851 168.473C74.3664 168.504 74.3481 168.534 74.3302 168.565L74.3459 168.536C74.3268 168.566 74.3071 168.596 74.2866 168.625L74.3045 168.598C74.2836 168.628 74.2617 168.657 74.2391 168.686L74.2591 168.658C74.236 168.688 74.2121 168.716 74.1873 168.744L74.2086 168.718C74.1641 168.768 74.1171 168.815 74.0674 168.86L74.0909 168.837C74.0612 168.866 74.0303 168.892 73.998 168.917L74.0225 168.896C73.9893 168.923 73.9554 168.949 73.9213 168.975L73.9457 168.955C73.91 168.982 73.8734 169.007 73.8363 169.032L73.862 169.014C73.8302 169.034 73.7984 169.055 73.7661 169.075L73.7683 169.073L73.7439 169.088L73.7661 169.075C73.7256 169.099 73.6846 169.123 73.6428 169.145L73.6663 169.131C73.6218 169.155 73.577 169.178 73.5312 169.2L73.5547 169.188C71.6393 170.104 69.3892 169.482 67.5374 168.716C65.2039 167.75 62.983 166.445 60.8509 165.107C58.3187 163.519 55.8937 161.766 53.5554 159.908C51.1474 157.994 48.6004 156.015 46.927 153.4C52.3419 156.831 58.3222 159.349 64.2937 161.653C65.1259 161.974 66.3007 162.712 67.2078 162.742C67.8212 162.763 67.6267 162.476 67.2462 162.227C66.8294 161.954 66.3007 161.842 65.8456 161.644C62.9054 160.368 60.071 158.809 57.2646 157.27C54.0942 155.53 50.9945 153.646 47.6894 152.163C50.0285 152.531 52.3702 152.899 54.6805 153.421C56.966 153.936 59.5196 154.499 61.5588 155.684C63.6041 156.871 65.632 158.039 67.7309 159.137C69.7344 160.183 71.2609 161.486 72.665 163.25ZM86.4713 158.345C87.0632 159.072 87.9595 160.279 86.9743 161.061C85.8911 161.919 83.9944 161.853 82.6998 161.774C79.2652 161.565 75.8973 160.63 72.7108 159.375C69.2784 158.024 65.9441 156.185 62.7611 154.335C59.5074 152.444 56.7376 149.874 53.7394 147.63C54.3566 147.638 55.3771 148.486 55.9199 148.75C56.9229 149.238 57.9329 149.71 58.9586 150.149C61.1212 151.075 63.3173 151.933 65.5165 152.769C67.6638 153.586 69.8272 154.363 72.0142 155.07C72.9279 155.365 73.8564 155.619 74.7614 155.94C75.2147 156.1 76.1964 156.601 76.6602 156.258C76.4858 155.746 75.5242 155.639 75.0852 155.499C74.2687 155.238 73.4723 154.898 72.6785 154.575C70.7182 153.779 68.7867 152.916 66.8665 152.03C63.0797 150.283 59.3309 148.484 55.5088 146.814C55.5302 146.812 55.5515 146.81 55.5729 146.807L55.5637 146.809L55.6138 146.805L55.599 146.806L55.6426 146.803L55.6217 146.805H55.6561L55.6383 146.804C61.1316 146.91 66.6686 148.157 71.8329 149.976C74.4841 150.909 77.0533 152.066 79.5197 153.408C81.9569 154.734 84.6901 156.172 86.4713 158.345ZM94.4463 148.618C97.101 150.318 100.425 152.322 101.849 155.257C102.559 156.721 101.92 158.032 100.299 158.396C98.8534 158.721 97.2588 158.469 95.839 158.138C89.126 156.573 82.545 153.18 76.9496 149.244C75.1964 148.011 73.5155 146.672 71.954 145.207C70.4362 143.782 69.1707 142.174 67.7706 140.646C68.2483 140.418 68.2845 140.38 68.7183 140.629L68.7078 140.623L68.7314 140.637L68.7187 140.631L68.7388 140.644L68.7305 140.638C72.1851 142.888 75.9505 144.719 79.7068 146.415C81.5215 147.234 83.3698 147.984 85.2625 148.609C86.1975 148.917 87.1452 149.167 88.0928 149.433C88.5218 149.553 89.4464 150.016 89.8387 149.647C89.6743 149.189 88.7445 149.15 88.3518 149.041C87.4194 148.78 86.5022 148.419 85.6038 148.062C83.766 147.331 81.98 146.477 80.2303 145.56C76.6841 143.702 73.3459 141.399 69.7052 139.729C70.2431 139.476 70.7064 139.57 71.2897 139.651L71.2614 139.647C79.3881 141.301 87.456 144.117 94.4463 148.618ZM111.542 143.208C112.433 144.094 113.398 145.191 113.76 146.423L113.756 146.409C113.766 146.444 113.775 146.478 113.784 146.513L113.78 146.498C113.979 147.248 113.77 147.939 113.108 148.372L113.12 148.364C113.094 148.382 113.067 148.399 113.04 148.416L113.053 148.408C113.025 148.424 112.998 148.44 112.97 148.457L112.982 148.45C112.928 148.481 112.874 148.51 112.818 148.539L112.831 148.532C112.799 148.548 112.768 148.563 112.735 148.578L112.748 148.571C110.313 149.714 106.897 148.994 104.414 148.383C101.493 147.664 98.6324 146.613 95.8683 145.438C90.1168 142.993 84.4338 139.785 79.9805 135.368C84.3588 137.289 88.7415 139.208 93.2188 140.893C95.397 141.713 97.5971 142.479 99.8246 143.156C100.847 143.467 101.885 143.716 102.91 144.014C103.386 144.152 104.448 144.673 104.903 144.295C104.706 143.825 103.686 143.772 103.269 143.666C102.27 143.414 101.288 143.042 100.322 142.687C98.1193 141.879 95.965 140.948 93.8299 139.979C89.7009 138.106 85.6269 135.857 81.2678 134.548C91.5069 134.398 103.912 135.614 111.542 143.208ZM121.135 133.149C123.749 134.966 126.649 137.083 128.238 139.906C128.825 140.95 129.115 142.368 128.222 143.334C127.307 144.323 125.656 144.382 124.404 144.278C121.362 144.023 118.29 142.688 115.611 141.315C112.442 139.692 109.528 137.639 106.742 135.441C105.175 134.205 103.648 132.915 102.225 131.517C100.719 130.039 99.4767 128.399 98.1524 126.767C98.5404 126.59 98.9742 126.194 99.4096 126.374C99.6189 126.461 99.805 126.785 99.9715 126.936C100.328 127.258 100.756 127.529 101.157 127.79C102.68 128.783 104.274 129.677 105.847 130.587C108.913 132.361 111.998 134.116 115.229 135.58C116.522 136.166 117.845 136.68 119.154 137.23C119.534 137.39 120.093 137.687 120.521 137.638C121.296 137.549 120.557 137.125 120.179 136.965C117.179 135.694 114.312 134.336 111.501 132.669C107.909 130.54 104.471 128.176 100.935 125.962L100.946 125.969C100.805 125.877 100.666 125.781 100.528 125.682C102.019 125.491 103.515 126.086 104.957 126.368C106.906 126.75 108.823 127.185 110.707 127.82C114.423 129.074 117.942 130.885 121.135 133.149ZM136.856 128.488C137.95 129.335 142.148 132.301 140.799 134.137C139.731 135.592 136.19 134.827 134.755 134.547C128.97 133.418 123.539 130.45 118.565 127.423C115.543 125.582 112.662 123.634 110.053 121.241C110.434 120.909 110.998 121.428 111.313 121.615C111.971 122.006 112.695 122.276 113.4 122.574C115.186 123.329 116.99 124.04 118.81 124.712C120.651 125.392 122.506 126.031 124.369 126.647C125.03 126.866 125.683 127.085 126.333 127.335C126.686 127.471 127.411 127.851 127.783 127.591C127.655 127.166 126.911 127.059 126.571 126.943C125.945 126.731 125.334 126.475 124.721 126.23C123.272 125.65 121.829 125.057 120.395 124.443C117.688 123.285 115.016 122.054 112.397 120.712C116.735 121.105 121.054 121.41 125.249 122.665C129.417 123.912 133.42 125.819 136.856 128.488ZM147.041 120.018C148.47 120.629 149.896 121.302 151.146 122.232C152.133 122.967 153.452 124.094 153.591 125.398C153.881 128.121 149.45 128.134 147.713 127.949C141.669 127.307 135.905 124.641 130.627 121.794C127.41 120.058 124.284 118.095 121.739 115.452C122.163 115.278 122.861 115.872 123.205 116.065C124.071 116.553 125.003 116.954 125.914 117.353C127.809 118.181 129.757 118.907 131.7 119.618C133.588 120.308 135.495 120.951 137.429 121.505C138.326 121.761 139.239 121.967 140.135 122.227C140.641 122.373 141.449 122.769 141.965 122.502C141.668 122.074 140.847 122.064 140.391 121.936C139.653 121.728 138.928 121.456 138.208 121.196C136.632 120.625 135.08 119.988 133.543 119.32C130.282 117.904 127.085 116.349 123.788 115.012C131.64 115.327 139.834 116.828 147.041 120.018ZM159.636 111.236C161.508 112.227 165.839 115.391 162.624 117.467C160.101 119.095 156.243 118.547 153.452 118.102C146.565 117.006 139.861 114.344 134.396 109.998C137.62 110.993 140.911 111.765 144.227 112.391C145.852 112.698 147.484 112.97 149.121 113.211C149.875 113.323 150.636 113.404 151.388 113.528C151.786 113.593 152.577 113.876 152.925 113.55C152.703 113.162 151.928 113.223 151.55 113.166C150.833 113.058 150.121 112.893 149.413 112.739C147.763 112.38 146.125 111.969 144.494 111.531C141.113 110.624 137.792 109.494 134.4 108.631C138.659 108.022 143.033 107.958 147.324 108.225C151.539 108.488 155.875 109.242 159.636 111.236ZM176.963 102.987C177.152 103.126 177.331 103.279 177.496 103.446L177.49 103.441C177.508 103.459 177.525 103.477 177.543 103.495L177.537 103.488C177.553 103.507 177.57 103.525 177.586 103.543L177.582 103.537C177.597 103.556 177.612 103.573 177.628 103.591L177.622 103.585C177.637 103.602 177.651 103.62 177.666 103.637L177.662 103.632L177.667 103.639L177.666 103.637C177.677 103.652 177.688 103.666 177.698 103.681L177.698 103.68C177.711 103.698 177.724 103.716 177.735 103.734L177.731 103.726C177.743 103.744 177.755 103.763 177.768 103.781L177.763 103.774C177.775 103.792 177.786 103.81 177.797 103.828L177.792 103.819C177.803 103.837 177.813 103.855 177.823 103.873L177.819 103.865L177.823 103.874L177.823 103.873C177.831 103.889 177.84 103.904 177.848 103.92L177.844 103.911L177.859 103.943L177.855 103.934L177.87 103.966L177.866 103.957L177.881 103.988L177.876 103.98L177.89 104.011L177.886 104.002L177.9 104.032L177.895 104.024L177.909 104.055L177.905 104.046L177.916 104.073L177.914 104.068L177.918 104.077L177.916 104.073L177.925 104.1L177.921 104.091L177.932 104.122L177.929 104.113L177.939 104.145L177.937 104.135L177.947 104.167L177.943 104.158L177.953 104.188L177.949 104.179L177.957 104.211L177.955 104.201L177.963 104.233L177.961 104.222L177.97 104.254L177.966 104.245L177.971 104.266L177.977 104.298L177.976 104.288L177.981 104.319L177.98 104.31L177.984 104.341L177.983 104.332L177.988 104.363L177.985 104.353C178.035 104.727 177.913 105.101 177.715 105.417L177.721 105.407L177.713 105.42L177.715 105.417C177.694 105.448 177.674 105.48 177.654 105.512L177.661 105.5C177.638 105.535 177.613 105.57 177.587 105.603L177.596 105.593C177.57 105.627 177.544 105.661 177.517 105.694L177.524 105.685C177.497 105.719 177.47 105.752 177.441 105.784L177.448 105.775C177.42 105.807 177.392 105.839 177.363 105.87L177.366 105.867L177.359 105.874L177.363 105.87C177.332 105.9 177.302 105.931 177.272 105.961L177.281 105.954C177.249 105.986 177.215 106.017 177.181 106.047L177.19 106.039C175.21 107.856 172.303 108.238 169.722 108.396C166.809 108.575 163.883 108.539 160.975 108.28C154.728 107.722 148.665 106.211 142.94 103.662C147.48 103.953 151.997 104.416 156.544 104.602C158.731 104.692 160.921 104.747 163.11 104.724C164.018 104.715 164.926 104.667 165.834 104.686C166.291 104.695 167.3 104.837 167.631 104.415C167.294 104.029 166.347 104.219 165.909 104.228C165.065 104.245 164.216 104.174 163.373 104.119C161.237 103.981 159.107 103.764 156.98 103.524C152.701 103.043 148.395 102.295 144.08 102.314C145.028 101.668 146.381 101.77 147.473 101.644C148.991 101.469 150.505 101.278 152.025 101.131C154.886 100.853 157.757 100.657 160.632 100.615C163.42 100.574 166.211 100.678 168.985 100.963C171.586 101.229 174.79 101.375 176.963 102.987ZM181.151 93.2527C183.672 93.8971 186.652 94.7202 188.328 96.8606L188.327 96.8594L188.333 96.8676L188.328 96.8606C188.353 96.894 188.378 96.9277 188.403 96.9611L188.397 96.9542C188.414 96.9775 188.43 97.0009 188.446 97.0243L188.441 97.0152C188.455 97.039 188.471 97.0623 188.488 97.0853L188.481 97.077C188.497 97.0995 188.513 97.1225 188.527 97.1463L188.52 97.1381C188.535 97.161 188.549 97.1839 188.562 97.2073L188.557 97.1982C188.57 97.2207 188.582 97.2437 188.595 97.2666L188.589 97.2575C188.602 97.2801 188.615 97.3025 188.625 97.3259L188.621 97.3155C188.633 97.338 188.644 97.361 188.655 97.3839L188.651 97.3739C188.66 97.396 188.67 97.4181 188.681 97.4397L188.677 97.4311L188.682 97.4414L188.681 97.4397C188.689 97.4596 188.698 97.4791 188.706 97.499L188.701 97.4878C188.711 97.5098 188.72 97.5323 188.728 97.5553L188.724 97.544C188.732 97.5665 188.74 97.5886 188.748 97.6106L188.744 97.5985C188.75 97.6198 188.757 97.6405 188.764 97.6613L188.762 97.6544L188.765 97.6656L188.764 97.6613C188.768 97.6786 188.774 97.6959 188.78 97.7128L188.778 97.708L188.782 97.7193L188.78 97.7128C188.894 98.1144 188.842 98.5411 188.617 98.896L188.624 98.8847C188.613 98.9037 188.601 98.9224 188.589 98.9405L188.598 98.9302C188.584 98.9479 188.571 98.9661 188.559 98.9851L188.566 98.9756C188.553 98.9938 188.539 99.0124 188.526 99.0306L188.534 99.0197C188.521 99.0388 188.506 99.057 188.491 99.0747L188.499 99.0652C188.484 99.0833 188.47 99.1011 188.455 99.1193L188.462 99.1097C188.407 99.1764 188.349 99.2392 188.286 99.298L188.295 99.2894C188.277 99.3075 188.258 99.3248 188.239 99.3417L188.247 99.3352C188.228 99.3521 188.209 99.3694 188.19 99.3863L188.197 99.379C186.526 100.827 184.033 100.819 181.947 100.686C179.348 100.519 176.761 100.16 174.207 99.6594C168.618 98.5649 163.218 96.7425 157.813 94.9903C161.649 95.3183 165.503 95.3733 169.341 95.703C171.243 95.8666 173.146 96.0207 175.055 96.0695C175.844 96.0895 176.633 96.0821 177.421 96.1016C177.835 96.112 178.683 96.2401 178.972 95.8424C178.646 95.4204 177.691 95.5922 177.23 95.5797C176.269 95.5546 175.299 95.4075 174.348 95.2746C172.264 94.9838 170.197 94.5874 168.124 94.2308C164.121 93.5418 160.015 92.8433 155.946 93.3371C156.358 92.8316 157.384 92.9303 157.96 92.8788C158.983 92.7871 160.002 92.6213 161.023 92.5101C163.264 92.2664 165.511 92.0968 167.764 92.0405C172.253 91.9284 176.777 92.1877 181.151 93.2527ZM188.42 83.9366C190.449 84.2966 193.039 84.8255 194.542 86.3575L194.533 86.3492C194.558 86.373 194.581 86.3968 194.604 86.4219L194.596 86.4137C194.619 86.4375 194.641 86.4622 194.664 86.4877L194.656 86.4786C194.677 86.5037 194.698 86.5288 194.719 86.5535L194.711 86.5444C195.416 87.3784 195.338 88.4728 194.408 89.086L194.417 89.0787C194.387 89.0986 194.357 89.1185 194.326 89.1371L194.338 89.1293C192.406 90.3467 189.569 90.2987 187.36 90.3381C184.82 90.3835 182.273 90.2645 179.742 90.0542C177.19 89.8425 174.647 89.5197 172.121 89.1055C169.535 88.6818 167.008 87.9885 164.432 87.5173C168.432 87.1048 172.406 86.7093 176.43 86.6392C178.333 86.6059 180.234 86.5786 182.134 86.4799C182.95 86.4375 183.766 86.367 184.583 86.3514C185.055 86.3423 185.981 86.4635 186.332 86.0567C185.969 85.6503 185.07 85.8044 184.587 85.7866C183.73 85.7546 182.872 85.6447 182.018 85.5646C179.956 85.3712 177.894 85.208 175.823 85.1353C171.866 84.9959 167.808 85.0431 163.931 85.9264C164.562 85.2846 165.364 85.2738 166.219 85.1353C167.314 84.9574 168.411 84.7921 169.512 84.6458C171.624 84.365 173.745 84.1278 175.865 83.9123C180.02 83.49 184.282 83.2074 188.42 83.9366ZM196.441 73.4C198.376 73.6246 200.775 73.9613 202.225 75.3911L202.217 75.3842C202.243 75.4093 202.268 75.4349 202.293 75.46L202.287 75.4539C202.312 75.4794 202.336 75.5054 202.359 75.5318L202.353 75.5236C202.375 75.5504 202.398 75.5773 202.421 75.6037L202.414 75.5954C202.435 75.6197 202.456 75.6443 202.475 75.6694L202.474 75.6673L202.48 75.6755L202.475 75.6694C202.495 75.6963 202.515 75.7231 202.535 75.7499L202.529 75.7417C202.55 75.7685 202.57 75.7962 202.588 75.8252L202.581 75.8148C202.598 75.8408 202.615 75.8668 202.633 75.8923L202.631 75.8902L202.638 75.9001L202.633 75.8923C202.649 75.9213 202.666 75.9499 202.684 75.978L202.677 75.9676C202.695 75.997 202.711 76.0265 202.727 76.0568L202.72 76.0464C202.737 76.0758 202.753 76.1061 202.766 76.1377L202.76 76.1265C202.774 76.1572 202.788 76.1879 202.802 76.2186L202.797 76.2073C202.81 76.2359 202.821 76.2653 202.832 76.2948L202.83 76.2896L202.834 76.3017L202.832 76.2948C202.842 76.3251 202.853 76.3558 202.864 76.3861L202.859 76.374C202.871 76.4068 202.881 76.4402 202.89 76.4735L202.887 76.4601C202.897 76.4934 202.906 76.5271 202.913 76.5613L202.909 76.548C202.917 76.5822 202.925 76.6167 202.933 76.6509L202.929 76.6375C202.937 76.6726 202.943 76.7081 202.947 76.744L202.946 76.7306C202.952 76.7665 202.957 76.8029 202.96 76.8392L202.958 76.8249C202.962 76.8617 202.966 76.8989 202.968 76.9357L202.967 76.9223C202.971 76.96 202.973 76.998 202.974 77.0361L202.973 77.0227C202.973 77.0512 202.974 77.0802 202.974 77.1088V77.1066V77.117V77.1088C202.975 77.1322 202.974 77.1551 202.973 77.1785L202.974 77.169C202.974 77.1906 202.973 77.2118 202.971 77.2335L202.971 77.2296L202.97 77.2386L202.971 77.2335C202.969 77.2551 202.967 77.2772 202.966 77.2988L202.966 77.2884C202.965 77.3113 202.963 77.3343 202.959 77.3568L202.961 77.3464C202.957 77.3685 202.953 77.3905 202.952 77.413L202.953 77.4035L202.948 77.4412L202.95 77.4264C202.942 77.4684 202.934 77.5104 202.926 77.5524L202.93 77.5372L202.925 77.5571L202.926 77.5524C202.917 77.5879 202.908 77.6238 202.899 77.6588L202.903 77.6441L202.898 77.6632L202.899 77.6593C202.887 77.6952 202.876 77.7311 202.864 77.7666L202.869 77.748C202.856 77.7883 202.842 77.8276 202.825 77.8661L202.832 77.8484C202.817 77.8844 202.801 77.9202 202.785 77.9557L202.789 77.9471L202.781 77.964L202.785 77.9557C202.77 77.9886 202.753 78.0207 202.735 78.0518L202.739 78.044L202.73 78.0596L202.735 78.0518C202.715 78.0856 202.695 78.1198 202.675 78.1535L202.684 78.1379C202.662 78.1747 202.639 78.2106 202.614 78.2457L202.624 78.231C202.598 78.2664 202.573 78.3015 202.547 78.337L202.556 78.3231C202.53 78.3586 202.503 78.3928 202.474 78.4262L202.484 78.4136C202.455 78.4473 202.426 78.4811 202.396 78.5144L202.406 78.5019C202.376 78.536 202.344 78.5689 202.312 78.601L202.322 78.5906C202.289 78.6222 202.256 78.6538 202.223 78.6854L202.232 78.6759C202.2 78.7066 202.166 78.736 202.132 78.7646L202.137 78.7602L202.127 78.7689L202.132 78.7646C200.474 80.1641 198.14 80.5086 196.045 80.6865C193.685 80.8864 191.308 80.9418 188.941 80.8505C183.745 80.6497 178.477 79.8742 173.415 78.7001C177.133 78.7771 180.865 78.4582 184.576 78.2617C186.445 78.1626 188.313 78.0371 190.172 77.8103C190.918 77.7195 191.662 77.6056 192.409 77.5195C192.837 77.4702 193.686 77.516 193.937 77.0707C193.606 76.6769 192.771 76.905 192.339 76.9283C191.463 76.9755 190.581 76.9582 189.703 76.9677C187.851 76.9876 185.999 77.017 184.148 77.0253C180.381 77.0417 176.572 76.8859 172.814 77.1759C176.605 75.8858 180.497 74.8987 184.435 74.1595C188.383 73.4169 192.429 72.9603 196.441 73.4ZM205.027 63.4754C206.2 63.6901 207.786 64.0765 208.414 65.2086C209.035 66.3304 208.271 67.3954 207.357 68.051C205.009 69.7349 201.886 70.2538 199.086 70.6385C192.153 71.5915 185.095 71.3314 178.115 71.4876C181.511 71.2054 184.859 70.5277 188.166 69.7371C189.794 69.348 191.417 68.9343 193.035 68.5102C193.735 68.3267 194.431 68.1224 195.135 67.9588C195.57 67.858 196.386 67.8152 196.629 67.3664C196.254 67.1093 195.619 67.401 195.229 67.4884C194.489 67.6546 193.731 67.7611 192.983 67.8818C191.479 68.1242 189.97 68.3392 188.46 68.5409C185.309 68.9616 182.096 69.1879 178.977 69.8111C183.303 68.1211 187.605 66.3844 192.08 65.1147C196.128 63.9661 200.797 62.7094 205.027 63.4754ZM199.927 54.8608C202.255 54.6401 204.596 54.6279 206.926 54.8201C208.811 54.9754 212.048 55.0408 213.305 56.7056L213.298 56.6965C213.315 56.7203 213.331 56.7442 213.348 56.768L213.34 56.7589C213.356 56.7827 213.371 56.8069 213.385 56.8316L213.378 56.8212L213.404 56.8631L213.397 56.8532L213.421 56.8961L213.414 56.8848L213.437 56.9289L213.43 56.9164L213.451 56.9605L213.445 56.9493L213.466 56.993L213.46 56.9809L213.48 57.0259L213.473 57.0138L213.491 57.0588L213.487 57.0462L213.504 57.0925L213.498 57.0791L213.515 57.1254L213.51 57.112L213.525 57.1592L213.52 57.1458L213.534 57.1942L213.53 57.1795L213.543 57.228L213.538 57.2137L213.55 57.2635L213.547 57.2501L213.556 57.2951L213.554 57.2856L213.557 57.2998L213.556 57.2951L213.563 57.3362L213.56 57.3219L213.567 57.3725L213.564 57.3583L213.572 57.4098L213.57 57.395L213.575 57.4469L213.572 57.4327L213.577 57.4855L213.574 57.4712L213.577 57.5127L213.575 57.4972L213.577 57.5387L213.575 57.5231V57.5604L213.576 57.5482L213.575 57.5638V57.5604L213.574 57.5885L213.575 57.5729L213.572 57.6114L213.572 57.5971L213.57 57.6357L213.57 57.6201L213.567 57.6473L213.568 57.6443L213.566 57.659L213.567 57.6473L213.561 57.6833L213.564 57.6677L213.558 57.7062L213.56 57.6897L213.555 57.7153L213.556 57.7127L213.553 57.7283L213.555 57.7153L213.548 57.749L213.55 57.7356L213.54 57.7711L213.544 57.7564L213.534 57.7932L213.538 57.7784L213.528 57.8139L213.531 57.8005L213.521 57.8351L213.523 57.8218L213.514 57.849L213.517 57.8434L213.512 57.8568L213.514 57.8485L213.503 57.8767L213.508 57.8633L213.494 57.8988L213.499 57.8854L213.484 57.92L213.489 57.9066L213.473 57.9403L213.479 57.9278L213.463 57.9615L213.469 57.949L213.452 57.9819L213.457 57.9702L213.44 58.0026L213.445 57.991L213.428 58.0234L213.433 58.0122L213.414 58.0446L213.42 58.0342L213.401 58.0645L213.406 58.055L213.387 58.0857L213.391 58.0762L213.372 58.1052L213.377 58.0974L213.371 58.1069L213.372 58.1052C213.356 58.1273 213.34 58.1485 213.323 58.1697L213.329 58.161C213.316 58.1779 213.302 58.1948 213.289 58.2121L213.295 58.2034C213.28 58.2203 213.266 58.2368 213.251 58.2532L213.258 58.2459L213.233 58.2744L213.241 58.2636C213.21 58.2965 213.179 58.329 213.146 58.3606L213.158 58.3488C213.125 58.3813 213.091 58.4129 213.057 58.4441L213.067 58.4332C213.032 58.4648 212.996 58.496 212.96 58.5263L212.969 58.5168C211.225 59.9267 208.897 60.398 206.727 60.7109C204.337 61.0558 201.923 61.2177 199.509 61.2285C194.608 61.2505 189.71 60.6828 184.911 59.7181C188.257 59.6831 191.601 59.0807 194.91 58.641C196.558 58.4224 198.204 58.1926 199.844 57.9208C200.517 57.8092 201.188 57.6733 201.863 57.5772C202.269 57.5197 203.081 57.5491 203.305 57.1146C202.983 56.8234 202.363 57.0393 201.994 57.0895C201.294 57.1843 200.579 57.2185 199.874 57.2687C198.362 57.376 196.847 57.447 195.332 57.511C192.268 57.6413 189.084 57.5638 186.054 58.0649C190.42 56.2473 195.229 55.2957 199.927 54.8608ZM208.388 43.4639C209.423 43.4133 210.521 43.44 211.508 43.7858L211.502 43.7841C211.559 43.804 211.616 43.8252 211.673 43.8482L211.666 43.8456C211.692 43.8568 211.718 43.8681 211.744 43.8789H211.744L211.751 43.8819L211.744 43.8789C211.772 43.8919 211.799 43.9044 211.827 43.917L211.821 43.9131C211.848 43.9269 211.875 43.9403 211.902 43.9538L211.896 43.9499C211.922 43.9637 211.948 43.9776 211.974 43.9914L211.968 43.9875C211.994 44.0009 212.02 44.0152 212.045 44.0299L212.037 44.026C212.063 44.0403 212.088 44.0555 212.113 44.0715L212.104 44.0654C212.129 44.0801 212.154 44.0957 212.177 44.1121L212.17 44.1074C212.194 44.1225 212.218 44.1385 212.24 44.1554L212.233 44.1507C212.256 44.1662 212.279 44.1832 212.301 44.2009L212.292 44.1948C212.315 44.2113 212.337 44.2286 212.358 44.2467L212.35 44.2407C212.389 44.2736 212.428 44.3073 212.466 44.3424L212.457 44.3354C212.494 44.3701 212.53 44.4069 212.564 44.4445L212.554 44.4355C212.574 44.4554 212.592 44.4761 212.609 44.4982L212.6 44.4882C212.617 44.5094 212.634 44.531 212.65 44.5523L212.643 44.5432C212.659 44.5652 212.675 44.5873 212.692 44.6094L212.683 44.5994C212.699 44.6215 212.714 44.6445 212.728 44.6678L212.722 44.6566C212.736 44.68 212.75 44.7037 212.763 44.7271L212.757 44.7154L212.764 44.7275L212.763 44.7271C212.773 44.7457 212.783 44.7639 212.794 44.7825L212.791 44.7773L212.798 44.7899L212.794 44.7825C212.806 44.8063 212.817 44.8301 212.828 44.8543L212.821 44.8422C212.833 44.8682 212.845 44.8946 212.856 44.9214L212.851 44.9093C212.862 44.9366 212.872 44.9643 212.883 44.9915L212.877 44.9781C212.889 45.0123 212.9 45.0469 212.91 45.082L212.906 45.0664C212.917 45.1054 212.928 45.1439 212.938 45.1828L212.935 45.1703L212.939 45.1858L212.938 45.1828C212.946 45.2183 212.954 45.2533 212.96 45.2893L212.956 45.2728C212.964 45.3118 212.971 45.3511 212.976 45.3905L212.973 45.3741C212.978 45.4122 212.983 45.4507 212.986 45.4888L212.983 45.4724C212.987 45.5104 212.989 45.549 212.989 45.5875L212.988 45.5697C212.989 45.6074 212.989 45.645 212.988 45.6827L212.987 45.6662C212.987 45.703 212.986 45.7398 212.981 45.7761L212.983 45.7627L212.981 45.7796L212.981 45.7761C212.978 45.809 212.974 45.8415 212.969 45.874L212.971 45.8575C212.966 45.8947 212.959 45.9319 212.952 45.9691L212.955 45.9536C212.947 45.9903 212.939 46.0276 212.931 46.0643L212.933 46.0488C212.924 46.0855 212.915 46.1223 212.904 46.1587L212.908 46.144C212.899 46.1769 212.889 46.2094 212.877 46.2409L212.877 46.24L212.872 46.2535L212.877 46.2405C212.864 46.2768 212.85 46.3127 212.836 46.3487L212.84 46.3361C212.827 46.3721 212.812 46.4067 212.796 46.4408L212.8 46.4318L212.794 46.4443L212.796 46.4408C212.78 46.4742 212.765 46.5071 212.748 46.54L212.754 46.5296C212.735 46.5655 212.716 46.6014 212.696 46.6369L212.702 46.6265C212.682 46.662 212.662 46.6975 212.641 46.733L212.646 46.7235C212.625 46.7594 212.602 46.7949 212.579 46.8299L212.586 46.8204C212.562 46.855 212.538 46.8901 212.514 46.9247L212.52 46.9174L212.514 46.926L212.514 46.9247C211.371 48.5372 209.441 49.4412 207.673 50.209C205.788 51.0277 203.828 51.6618 201.833 52.1581C197.893 53.1379 193.8 53.7356 189.734 53.7503C192.519 52.8518 195.299 51.9357 198.039 50.907C199.172 50.4812 200.284 49.9909 201.429 49.5949C202.02 49.3902 203.388 49.1175 203.618 48.4281C202.991 48.0724 201.792 48.8189 201.211 49.0327C200.006 49.4758 198.725 49.7671 197.482 50.0882C194.579 50.8386 191.651 51.5008 188.729 52.1741C194.36 48.1512 201.243 43.7833 208.388 43.4639ZM205.886 34.9358C208.488 34.0971 211.813 33.2194 214.453 34.381L214.448 34.3779C214.561 34.4281 214.673 34.4831 214.782 34.5433L214.777 34.5402C214.806 34.5549 214.833 34.571 214.86 34.5879L214.854 34.584C214.881 34.5995 214.908 34.6155 214.934 34.632L214.929 34.629L214.935 34.6329L214.934 34.632C214.983 34.6623 215.03 34.6939 215.076 34.7267L215.069 34.7229C215.094 34.7402 215.119 34.7579 215.143 34.7761L215.135 34.7709C215.16 34.7874 215.183 34.8055 215.206 34.825L215.199 34.8189C215.222 34.8375 215.244 34.8566 215.267 34.8765L215.26 34.8704C215.301 34.9059 215.34 34.9427 215.378 34.9812L215.371 34.9743C215.391 34.9942 215.411 35.015 215.43 35.0357L215.423 35.0266C215.442 35.047 215.461 35.0678 215.479 35.0894L215.47 35.0812C215.488 35.1019 215.506 35.1232 215.523 35.1452L215.516 35.1362C215.533 35.1569 215.549 35.1781 215.564 35.2002L215.558 35.1903C215.573 35.2123 215.588 35.2344 215.603 35.2565L215.596 35.2461L215.622 35.2846L215.613 35.2746L215.637 35.3131L215.632 35.3019L215.655 35.3417L215.648 35.3313L215.67 35.3703L215.663 35.3599L215.682 35.395L215.679 35.3885L215.684 35.3997L215.682 35.395L215.699 35.4296L215.692 35.4175L215.712 35.4586L215.706 35.446L215.724 35.488L215.72 35.4759L215.737 35.5178L215.731 35.5044L215.748 35.5486L215.742 35.5352L215.758 35.5784L215.753 35.565L215.765 35.6005L215.763 35.5949L215.768 35.6092L215.765 35.6005L215.777 35.6399L215.772 35.6256L215.784 35.671L215.78 35.6576L215.791 35.7018L215.787 35.6884L215.799 35.7338L215.794 35.7195L215.804 35.7671L215.8 35.7516L215.807 35.7992L215.805 35.7844L215.813 35.8321L215.81 35.8177L215.815 35.861L215.814 35.8519L215.816 35.8653L215.815 35.861L215.817 35.8857V35.8848L215.819 35.9004L215.817 35.8857L215.821 35.9342L215.819 35.9186L215.822 35.9697L215.82 35.9541L215.822 35.993V35.9891L215.822 36.0039V35.9935V36.0402L215.822 36.0259C215.82 36.0558 215.819 36.0856 215.818 36.1151V36.1004C215.816 36.1276 215.814 36.1549 215.811 36.1822L215.811 36.1774L215.809 36.1921L215.811 36.1822C215.807 36.2116 215.802 36.241 215.798 36.2704L215.799 36.2579C215.794 36.2895 215.789 36.3211 215.782 36.3527L215.784 36.3401C215.778 36.373 215.77 36.4059 215.761 36.4384L215.764 36.4266C215.755 36.46 215.746 36.4937 215.738 36.5271L215.74 36.5158C215.729 36.55 215.718 36.5842 215.707 36.6184L215.71 36.6067C215.7 36.6391 215.688 36.6707 215.676 36.7028C215.662 36.7387 215.648 36.775 215.633 36.811L215.637 36.8006C215.621 36.8378 215.605 36.875 215.588 36.9118L215.591 36.9023C215.574 36.9403 215.556 36.9785 215.537 37.0157L215.542 37.004C215.521 37.0447 215.499 37.0849 215.476 37.1239L215.484 37.1113C215.46 37.1502 215.437 37.1892 215.413 37.2281L215.42 37.2165C215.395 37.2554 215.37 37.2943 215.343 37.3324L215.35 37.3221C215.324 37.3584 215.299 37.3943 215.272 37.4294L215.274 37.4268L215.267 37.4363L215.272 37.4294C214.146 38.9086 212.357 39.681 210.642 40.2674C208.827 40.888 206.959 41.3511 205.078 41.7198C201.369 42.4469 197.573 42.6602 193.883 43.4807C196.34 42.1387 198.882 40.9538 201.479 39.9065C202.752 39.3933 204.038 38.9121 205.336 38.465C205.919 38.2642 206.5 38.0642 207.096 37.9089C207.431 37.8219 208.048 37.757 208.204 37.3891C207.608 36.9524 206.283 37.5912 205.683 37.776C204.389 38.1746 203.064 38.4745 201.767 38.8674C198.807 39.7641 195.868 40.8313 193.054 42.111C196.899 39.083 201.208 36.4756 205.886 34.9358ZM197.5 32.8736C199.62 30.6406 201.806 28.4413 204.291 26.605C206.625 24.8805 209.702 22.9741 212.719 23.0079L212.712 23.0083C212.745 23.0096 212.777 23.0105 212.809 23.0109H212.803C212.834 23.0118 212.866 23.0135 212.897 23.0157H212.891C212.921 23.0174 212.951 23.0196 212.98 23.0226L212.974 23.0217L212.982 23.0226H212.98C213.034 23.0287 213.088 23.0356 213.141 23.0434L213.133 23.0425C213.161 23.0473 213.189 23.052 213.217 23.0568L213.209 23.0551C213.235 23.0603 213.262 23.0659 213.289 23.0715L213.281 23.0706C213.307 23.0754 213.333 23.0815 213.358 23.0884L213.35 23.0853C213.375 23.0936 213.401 23.1005 213.426 23.1061L213.418 23.104C214.999 23.5618 214.338 25.3669 213.778 26.3861C212.861 28.0565 211.381 29.3981 209.851 30.5082C205.699 33.5215 200.842 34.7579 196.038 36.315C198.131 34.6398 200.306 33.0705 202.505 31.5355C203.559 30.799 204.618 30.0676 205.68 29.3418C206.177 29.0021 207.822 28.2928 207.918 27.6424C207.315 27.3611 206.325 28.1054 205.832 28.3733C204.796 28.9376 203.733 29.4362 202.723 30.0512C200.299 31.5286 197.987 33.1558 195.709 34.8462C196.3 34.1823 196.885 33.515 197.5 32.8736ZM199.562 28.7087C199.645 28.649 199.729 28.5889 199.813 28.5291C197.525 30.4995 195.515 32.7118 193.745 35.1504C193.915 34.4835 193.927 33.9742 194.385 33.4363C194.839 32.9035 195.303 32.369 195.791 31.8662C196.934 30.6877 198.228 29.6655 199.562 28.7087ZM202.726 17.4088C204.213 15.5881 206.224 13.5563 208.649 13.0634L208.638 13.0655C208.68 13.0564 208.721 13.0491 208.763 13.0434L208.752 13.0456C208.793 13.0396 208.834 13.0339 208.875 13.0279L208.863 13.03C208.903 13.0248 208.943 13.0209 208.984 13.0188L208.97 13.0201C209.009 13.0175 209.048 13.0153 209.088 13.014L209.075 13.0153C209.112 13.0149 209.15 13.0144 209.187 13.0144L209.174 13.014L209.19 13.0144H209.187C209.22 13.0157 209.252 13.0175 209.285 13.0193L209.269 13.0188C209.305 13.0201 209.34 13.024 209.376 13.0305L209.358 13.0279L209.42 13.0357L209.401 13.0339L209.46 13.043L209.444 13.04L209.463 13.0434L209.459 13.043L209.504 13.0517L209.485 13.0482L209.544 13.0634L209.525 13.0578L209.578 13.0724L209.564 13.0681L209.582 13.0738L209.578 13.0724L209.62 13.0859L209.602 13.0794L209.622 13.0863L209.62 13.0859L209.659 13.0989L209.639 13.0919C209.704 13.1157 209.768 13.1461 209.828 13.1815L209.813 13.1737L209.831 13.1837L209.83 13.1828L209.84 13.1889L209.831 13.1837L209.855 13.1984L209.847 13.1923L209.872 13.2083L209.861 13.2023L209.886 13.2192L209.877 13.2131L209.902 13.23L209.892 13.2231L209.915 13.2395L209.908 13.2339L209.918 13.2412L209.915 13.2395L209.932 13.2521L209.923 13.2464L209.946 13.2642L209.937 13.2572L209.961 13.2763L209.952 13.2693L209.976 13.2884L209.968 13.2823L209.991 13.3027L209.982 13.2958C210 13.3105 210.017 13.3265 210.033 13.3442L210.026 13.3352L210.048 13.3585L210.04 13.3503L210.062 13.3737L210.054 13.3654L210.076 13.3888L210.069 13.3819L210.091 13.4061L210.083 13.397L210.105 13.4213L210.097 13.4144L210.114 13.4329L210.111 13.4295L210.119 13.4386L210.114 13.4329L210.132 13.4568L210.124 13.4477L210.141 13.468L210.139 13.4659L210.146 13.474L210.141 13.468L210.159 13.4922L210.152 13.484L210.173 13.5113L210.166 13.503L210.186 13.5316L210.18 13.5225L210.2 13.5511L210.194 13.5429C210.204 13.5598 210.214 13.5762 210.225 13.5926L210.221 13.5844C210.231 13.6021 210.242 13.6199 210.252 13.6377L210.246 13.6286C210.258 13.6467 210.269 13.6654 210.278 13.6848L210.273 13.6757C210.282 13.6957 210.292 13.7151 210.303 13.7342L210.298 13.7259C210.308 13.7463 210.318 13.7666 210.327 13.7874L210.321 13.7739C210.34 13.8172 210.358 13.8605 210.376 13.9042L210.369 13.8878C210.387 13.9332 210.403 13.9795 210.419 14.0258L210.415 14.0142L210.419 14.0284L210.419 14.0258C210.429 14.0557 210.437 14.086 210.447 14.1159L210.446 14.1119L210.449 14.1232L210.447 14.1159C210.457 14.1509 210.466 14.1864 210.475 14.2219L210.471 14.2085C210.481 14.2431 210.489 14.2782 210.496 14.3136L210.495 14.3076L210.497 14.3201L210.496 14.3136C210.502 14.3487 210.508 14.3837 210.516 14.4183L210.513 14.4058C210.519 14.4435 210.525 14.4807 210.53 14.5183L210.528 14.5058C210.533 14.543 210.538 14.5802 210.541 14.6175L210.54 14.6062C210.543 14.6439 210.546 14.6815 210.548 14.7191L210.548 14.7066C210.549 14.7447 210.551 14.7823 210.553 14.8204L210.551 14.8092C210.553 14.8468 210.553 14.8845 210.554 14.9221L210.552 14.9109C210.552 14.9494 210.551 14.9875 210.55 15.026C210.548 15.0584 210.546 15.0905 210.544 15.1229L210.544 15.1194L210.544 15.129L210.544 15.1229C210.54 15.1601 210.537 15.1978 210.534 15.235L210.534 15.2238C210.241 18.0765 207.424 20.5688 205.349 22.2835C202.618 24.5412 199.6 26.4146 196.996 28.8312C198.371 26.7466 199.888 24.7597 201.418 22.7863C202.183 21.7992 202.953 20.8155 203.709 19.8223C204.274 19.0814 205.174 18.2605 205.581 17.4235C206.039 16.4779 204.79 17.2772 204.476 17.5183C203.878 17.9787 203.301 18.5145 202.753 19.0308C200.991 20.69 199.552 22.6933 198.163 24.6606C199.444 22.1086 200.916 19.6289 202.726 17.4088ZM199.851 2.02482C202.663 4.93647 201.521 9.71765 200.394 13.104C199.024 17.2205 197.049 21.1591 195.181 25.0687C195.508 22.1882 195.716 19.2952 195.835 16.3995C195.895 14.9515 195.93 13.5026 195.949 12.0533C195.958 11.3488 196.344 9.30564 195.8 8.72963C195.191 9.12172 195.182 10.2802 195.067 10.9069C194.866 12.0061 194.629 13.0919 194.478 14.2007C194.127 16.7614 193.728 19.4051 193.759 21.9948C192.868 18.4427 191.912 14.845 191.927 11.157C191.941 7.8126 192.955 3.17209 196.104 1.31033L196.097 1.3155C196.134 1.29257 196.172 1.27091 196.211 1.251L196.204 1.25449C196.241 1.23501 196.278 1.21552 196.316 1.19648L196.309 1.19997C196.864 0.928626 197.481 0.829932 198.089 0.959762L198.081 0.958018C198.115 0.964943 198.148 0.972745 198.182 0.982266L198.173 0.980523C198.206 0.989178 198.24 0.998282 198.274 1.00694L198.266 1.00477C198.299 1.01429 198.332 1.0247 198.365 1.03552L198.357 1.03251C198.39 1.04506 198.423 1.05672 198.456 1.06711L198.449 1.0641C198.481 1.07751 198.514 1.09002 198.547 1.10213L198.539 1.09997C198.572 1.11338 198.604 1.12725 198.637 1.14196L198.629 1.13895C198.661 1.1528 198.694 1.16749 198.726 1.18306L198.718 1.18005C198.751 1.1952 198.783 1.2112 198.814 1.22807L198.808 1.22422C198.839 1.24153 198.87 1.25836 198.901 1.27567L198.896 1.27266C198.927 1.29127 198.958 1.30902 198.989 1.32633L198.982 1.32332C199.014 1.34193 199.045 1.36095 199.076 1.38085L199.074 1.37953C199.359 1.56086 199.618 1.78204 199.851 2.02482Z" fill="currentcolor"></path></svg>