<svg xmlns="http://www.w3.org/2000/svg" width="150" height="86" viewBox="0 0 150 86" fill="none"><path fill-rule="evenodd" clip-rule="evenodd" d="M17.9702 45.2196C20.8071 46.9313 24.525 46.6799 27.5515 45.6282C31.0815 44.401 34.4507 42.4851 37.4137 40.2071C40.5506 37.7955 43.3778 34.9829 46.0234 32.0466C46.607 31.3989 47.1867 30.7423 47.675 30.0179C47.8185 29.8055 48.127 28.9598 48.3419 28.8339C48.5725 28.6987 49.6829 29.1637 49.9901 29.2417C51.9092 29.7275 53.8185 30.2519 55.7177 30.8118C60.0627 32.0933 64.3557 33.5583 68.5793 35.1975C62.3199 34.838 55.8603 34.8626 49.8573 36.8998C46.8109 37.9337 43.8864 39.4775 41.4642 41.6135C39.4534 43.3867 37.2711 46.1903 38.7856 48.9494C40.0026 51.1664 42.732 52.0091 45.0996 52.0846C47.9145 52.1745 50.6896 51.2961 53.2409 50.1775C56.1933 48.8829 58.9629 47.2123 61.62 45.3934C64.5135 43.4121 67.5015 41.4389 70.1683 39.1558C70.8547 38.5683 71.5584 37.9544 72.1567 37.2741C72.1491 37.2826 72.5016 36.7951 72.5422 36.7862C72.6751 36.7569 73.196 37.0562 73.3513 37.1211C73.8363 37.3233 74.3199 37.528 74.8032 37.7349C76.7354 38.5628 78.6523 39.4258 80.5561 40.3173C84.3354 42.0866 88.0715 43.9551 91.7551 45.9169C85.8592 45.3251 79.7627 45.045 73.854 45.6092C68.5649 46.1145 62.6097 47.512 58.5757 51.2118C56.6639 52.9654 55.6267 55.6084 57.0075 58.0149C58.3586 60.3701 61.4291 61.4925 63.9097 62.1614C69.4836 63.665 74.8269 62.2827 79.8016 59.6202C82.7075 58.0653 85.4377 56.2074 88.1515 54.3435C89.6156 53.3376 91.1005 52.3643 92.5718 51.3686C93.2777 50.8909 93.9767 50.4021 94.6525 49.8824C95.1895 49.4691 95.9698 48.9995 96.2377 48.3475C102.063 51.5606 107.791 54.9518 113.398 58.5342C107.521 57.4583 101.435 57.0005 95.4646 57.3544C90.1175 57.6719 83.8195 58.752 79.9108 62.7718C78.1183 64.6153 77.0045 67.1837 77.4907 69.7788C77.9689 72.3307 79.8223 74.384 82.2111 75.3178C87.3966 77.3445 93.4719 75.4509 98.2854 73.2899C101.363 71.908 104.291 70.2188 107.205 68.5257C110.288 66.7352 113.347 64.8828 116.197 62.7328L116.187 62.7396C116.502 62.4946 116.831 62.2674 117.147 62.0241C117.307 61.9041 117.463 61.7799 117.616 61.6515C117.771 61.3853 117.943 61.3844 118.134 61.6498C118.916 61.905 119.787 62.7731 120.466 63.2436C121.918 64.2495 123.358 65.2728 124.785 66.3139C127.636 68.3944 130.432 70.5495 133.178 72.7673C135.916 74.9788 138.612 77.2411 141.321 79.4881C142.671 80.6076 144.03 81.7157 145.381 82.8343C146.741 83.961 147.948 85.011 149.568 85.7418L149.566 85.7385C149.587 85.7491 149.609 85.7597 149.631 85.7698L149.628 85.7677L149.66 85.7843L149.655 85.7813L149.685 85.7982L149.682 85.794L149.71 85.8097L149.704 85.8058L149.718 85.8139C149.663 86.1056 150.04 86.0614 149.996 85.6316C149.935 85.0271 148.996 84.41 148.575 84.0497L148.581 84.0556C148.566 84.0399 148.549 84.0247 148.532 84.0102L148.542 84.0183C142.839 78.4208 136.733 73.2208 130.432 68.3126C127.284 65.8599 124.066 63.5009 120.786 61.2293C120.276 60.8762 118.557 60.0106 118.497 59.4913C118.464 59.2009 118.697 58.6367 118.745 58.3353C118.815 57.8953 118.863 57.4524 118.929 57.0115C119.199 55.1875 119.69 53.4058 119.914 51.5738C120.737 44.8487 119.67 36.7976 115.19 31.4519C113.181 29.0544 109.819 26.6394 106.528 27.7034C103.069 28.8221 102.329 32.9851 102.853 36.1241C103.52 40.1112 105.487 43.7881 107.645 47.1509C109.967 50.7714 112.519 54.2676 115.307 57.5435C108.356 53.0044 101.172 48.8189 93.8693 44.8758C94.1079 44.5337 93.9924 44.0144 93.9721 43.6308C93.9412 43.0429 93.9717 42.4566 94.0047 41.8687C94.0863 40.413 94.1968 38.9608 94.2345 37.503C94.303 34.86 94.2167 32.1992 93.8202 29.5821C93.0471 24.4784 90.8661 19.7316 87.1291 16.1188C84.1796 13.2672 78.373 10.1105 75.2856 14.6017C73.8316 16.7169 74.0385 19.4493 74.5997 21.8278C75.1743 24.2639 76.2259 26.5779 77.5068 28.719C80.6797 34.0232 85.2363 38.5644 89.765 42.7144C86.6649 41.1205 83.5348 39.5856 80.3678 38.13C78.7966 37.4076 77.2199 36.698 75.6161 36.0499C74.8222 35.729 74.0254 35.4166 73.2345 35.0894C72.5312 34.7986 71.5368 34.5451 70.9685 34.0283C70.1217 33.259 70.1547 31.4807 70.0934 30.4371C69.9994 28.8441 69.9804 27.2613 69.7494 25.6789C69.2911 22.5429 68.3855 19.518 66.8617 16.7317C65.3294 13.9302 63.2627 11.4025 60.8303 9.33728C58.635 7.47299 55.8615 5.60361 52.9104 5.35224C50.1662 5.11867 47.5836 6.76343 46.962 9.51875C46.323 12.3521 47.6154 15.3168 49.1565 17.63C51.1289 20.5905 53.7923 23.1199 56.5234 25.3682C59.5063 27.8234 62.7121 30.226 66.0187 32.2281C62.8162 31.0713 59.5769 30.0179 56.3042 29.0785C55.4972 28.8471 54.6885 28.6224 53.8777 28.4049C53.2824 28.2451 52.4246 28.179 51.8821 27.8819C51.4073 27.6216 51.3134 26.9539 51.1962 26.4605C51.0282 25.7522 50.8686 25.0587 50.6363 24.3669C48.6047 18.3213 45.1259 12.48 40.7732 7.83119C38.552 5.45865 36.0494 3.19294 33.2121 1.58044C30.8314 0.227368 27.7516 -0.696701 25.1741 0.680958C22.6115 2.05099 21.5874 5.11194 22.336 7.84055C23.1121 10.6688 25.2677 12.9298 27.3725 14.8573C33.0877 20.0911 40.2176 23.8956 47.3445 26.8124C45.7175 26.4584 44.0836 26.138 42.4443 25.8455C40.9611 25.581 39.2756 25.5898 37.883 24.9879C34.8502 23.6764 32.0137 21.8536 29.0072 20.4641C23.421 17.883 16.9973 16.2943 10.8098 16.644C7.92472 16.8068 4.76834 17.4888 2.48622 19.3713C0.331047 21.1491 -0.494544 24.0528 0.292117 26.7233C2.13669 32.9851 10.3723 33.3374 15.6728 32.6931C22.8417 31.822 29.4075 28.6211 36.2868 26.6326L36.2801 26.6348L36.3046 26.628L36.2949 26.6297L36.3215 26.6225L36.311 26.6254L36.3689 26.6115L36.3588 26.6144C36.8619 26.4661 37.462 26.6814 37.9634 26.7632C38.5876 26.8649 39.2117 26.9667 39.8351 27.0743C41.1063 27.2943 42.374 27.5313 43.6376 27.7911C40.0526 28.2231 36.4874 28.8034 32.9316 29.4274C29.5949 30.0128 26.1889 30.53 23.0207 31.78C20.0864 32.9377 17.3063 34.8626 16.0495 37.8667C14.934 40.5275 15.4067 43.6194 17.9702 45.2196ZM149.854 85.7177L149.847 85.724L149.854 85.7207L149.846 85.7253L149.855 85.7236L149.835 85.7333L149.846 85.7304L149.821 85.7402L149.83 85.7397L149.807 85.7461L149.814 85.7346L149.812 85.741L149.825 85.7266L149.821 85.7321L149.834 85.7207L149.83 85.7266L149.842 85.7181L149.837 85.7232L149.848 85.7173L149.842 85.7215L149.853 85.7164L149.845 85.7219L149.854 85.7177ZM118.059 46.7999C118.098 50.0618 117.593 53.163 117.209 56.3833C116.718 55.1163 116.283 53.8293 115.836 52.5466C115.679 52.0948 115.382 51.5801 115.349 51.0965C115.314 50.5619 115.691 50.2063 115.94 49.7701L115.937 49.7748C116.579 48.7154 117.323 47.7235 118.058 46.7282L118.059 46.7999ZM117.205 39.9162C117.472 40.934 117.663 41.9721 117.798 43.0158C117.903 43.8237 118.105 44.6957 118.106 45.5104C118.108 46.2963 117.588 46.615 117.093 47.1479C116.312 47.9889 115.614 48.9037 114.929 49.824C114.604 48.8138 114.276 47.8045 113.98 46.785C113.784 46.1093 113.255 45.1755 113.541 44.4867C113.812 43.8347 114.555 43.2023 114.977 42.6414C115.703 41.6741 116.474 40.7352 117.158 39.7365C117.174 39.7967 117.19 39.8565 117.205 39.9162ZM113.628 32.4866C115.013 34.122 116.202 36.2826 116.807 38.3479C117.139 39.4839 116.437 39.9201 115.691 40.6979C114.803 41.6245 113.884 42.5334 113.116 43.566C112.842 42.4939 112.571 41.4211 112.284 40.3525C112.092 39.6365 111.585 38.6958 111.587 37.9561C111.588 37.2593 112.248 36.3356 112.475 35.6709C112.83 34.6307 113.168 33.5841 113.523 32.5439L113.524 32.546C113.538 32.5028 113.553 32.4604 113.57 32.4184C113.571 32.4188 113.571 32.4197 113.57 32.4209L113.571 32.4192L113.628 32.4866ZM110.911 35.8723C110.518 34.7718 109.945 33.7575 109.533 32.6778C109.203 31.813 109.645 30.4862 109.888 29.6202C110.952 30.0573 111.923 30.755 112.794 31.5024C113.601 32.1963 113.245 32.4985 112.91 33.3709L112.911 33.3666L112.891 33.412L112.893 33.4065C112.323 34.5997 111.926 35.871 111.307 37.0414C111.18 36.6501 111.048 36.2601 110.911 35.8723ZM107.696 29.2379C108.321 29.1777 108.948 29.2845 109.539 29.4889C109.28 30.1493 109.149 30.8478 108.944 31.5252C108.461 30.7448 107.932 29.995 107.335 29.2972C107.454 29.2705 107.575 29.251 107.696 29.2379ZM104.61 32.2192C104.929 31.1175 105.604 30.0526 106.656 29.5329C107.516 30.8839 108.154 32.3429 108.798 33.805C107.424 33.2378 105.967 32.8673 104.579 32.3268C104.589 32.2908 104.599 32.2548 104.61 32.2192ZM104.815 37.517C104.418 35.9392 104.136 34.2339 104.504 32.6223C105.353 33.0356 106.229 33.3861 107.098 33.7532C107.808 34.0533 108.834 34.3246 109.272 35.0109C109.729 35.7277 109.916 36.7205 110.168 37.5229C110.456 38.4398 110.723 39.363 110.968 40.2926C109.619 39.8641 108.351 39.2219 107.014 38.7611C106.514 38.589 104.862 38.2058 104.815 37.517ZM107.6 44.2146C106.54 42.2896 105.586 40.2846 104.989 38.1626C105.89 38.7726 106.875 39.2444 107.858 39.7068C108.825 40.1621 110.037 40.5114 110.907 41.1278C111.546 41.5813 111.566 42.4168 111.729 43.1217C111.99 44.2463 112.314 45.3633 112.634 46.4726C111.632 45.9983 110.586 45.5875 109.539 45.2234C108.996 45.0352 107.842 44.8211 107.6 44.2146ZM111.464 50.2512C110.237 48.5056 109.046 46.7274 107.978 44.8792C108.769 45.3061 109.59 45.6702 110.405 46.0458C111.138 46.3836 112.223 46.7151 112.776 47.3187C113.208 47.791 113.276 48.548 113.47 49.1364C113.758 50.013 114.08 50.8799 114.394 51.7472C113.823 51.5454 113.238 51.3775 112.686 51.1278L112.689 51.13C112.226 50.9074 111.739 50.6976 111.464 50.2512ZM117.001 57.9314C115.369 55.8111 113.841 53.614 112.295 51.4293C112.863 51.8116 113.503 52.046 114.112 52.347C114.795 52.6844 114.9 53.1019 115.159 53.7818C115.719 55.2489 116.368 56.6944 117.113 58.0759L117.001 57.9314ZM84.3206 47.0517C87.4363 47.2267 90.6079 47.2378 93.7004 47.6748C92.673 48.0143 91.6409 48.3407 90.6071 48.6608C89.9584 48.8617 89.0109 49.3912 88.3296 49.3475C87.7152 49.3085 87.124 48.7201 86.6188 48.4213C85.7521 47.9088 84.8169 47.5061 83.9308 47.0279C84.0603 47.036 84.1907 47.0436 84.3206 47.0517ZM75.8531 46.9024C77.9029 46.8143 79.9755 46.8185 82.0262 46.8846C83.0443 46.9173 83.7044 47.3302 84.5292 47.8939C85.4246 48.5065 86.3678 49.0444 87.2616 49.6599C86.111 49.9909 84.9333 50.2597 83.7942 50.6264C82.9495 50.8981 82.4502 51.1719 81.6695 50.6221C79.7132 49.2445 77.5732 48.1453 75.52 46.9181C75.6309 46.9118 75.7422 46.9067 75.8531 46.9024ZM68.9754 47.7257C70.1128 47.4819 71.263 47.3009 72.4178 47.1665C73.0327 47.0949 74.6805 46.6333 75.2242 47.0555L75.2221 47.0538C77.368 48.4344 79.5625 49.7341 81.6661 51.1821C80.411 51.5149 79.1533 51.8434 77.9029 52.1939C76.9897 52.45 76.1848 52.904 75.3465 52.3436C73.0966 50.84 70.9702 49.1453 68.6165 47.8045C68.7359 47.7778 68.8556 47.7515 68.9754 47.7257ZM62.7595 49.8596C63.8737 49.3043 65.0307 48.8384 66.2159 48.4577C66.678 48.3094 67.1714 48.1059 67.6522 48.0283C68.1917 47.941 68.4384 48.1724 68.8675 48.4984C70.9935 50.1143 73.1232 51.5144 75.4354 52.8425C74.24 53.1507 73.0648 53.5343 71.8656 53.828C70.8369 54.0803 69.7333 54.4838 68.8108 53.834C66.8122 52.425 64.7383 51.13 62.6008 49.9401L62.7595 49.8596ZM58.1665 53.4186C58.9409 52.2342 60.1241 51.4381 61.256 50.6314C61.5865 50.3962 61.9691 50.0749 62.399 50.1389C62.8691 50.2088 63.319 50.7429 63.685 51.0134L63.6816 51.0113C65.2325 52.2308 66.7906 53.4414 68.4574 54.4974C66.5997 54.8746 64.7365 55.2583 62.8666 55.5677C62.0101 55.7093 61.4934 55.2812 60.7436 54.9094C59.852 54.4673 58.9252 54.0875 58.0679 53.5797C58.1001 53.5254 58.1327 53.472 58.1665 53.4186ZM57.5115 56.2841C57.3562 55.4317 57.5466 54.5567 57.9456 53.7975C59.0721 54.5169 60.3166 55.0298 61.4507 55.7365C60.675 55.8361 59.9015 55.9496 59.1195 55.9738C58.6925 55.9869 57.7726 55.895 57.5229 56.3447C57.5191 56.3248 57.5153 56.3045 57.5115 56.2841ZM59.3983 58.9496C58.5736 58.3921 57.8699 57.6045 57.591 56.6317C57.9693 57.1666 59.5029 56.8377 60.0102 56.7839C61.2666 56.6499 62.5281 56.5779 63.7849 56.4388C63.0007 57.0251 62.2433 57.6529 61.5531 58.3485C61.2632 58.6406 61.0009 59.0704 60.6776 59.3158C60.3733 59.5473 60.4736 59.579 60.0636 59.3518C59.8363 59.2264 59.6129 59.0958 59.3983 58.9496ZM65.7945 61.2572C64.0633 61.0025 62.3499 60.484 60.7749 59.7189C61.6212 59.0898 62.4273 58.4087 63.2098 57.702C63.8496 57.1243 64.3959 56.4808 65.2587 56.2706C67.4088 55.7466 69.6423 55.4944 71.8047 54.9857C70.8593 56.5143 69.9144 58.0429 68.9665 59.5693C68.6948 60.0072 68.3042 61.1801 67.8244 61.4026C67.3238 61.6345 66.3205 61.339 65.7945 61.2572ZM74.1532 60.5129C72.2058 61.1212 70.2246 61.5188 68.1769 61.4628C68.8425 60.2551 69.6592 59.1428 70.437 58.0076C70.7946 57.4858 71.1394 56.9556 71.4852 56.4257C71.767 55.9942 72.0031 55.4113 72.3455 55.0328C72.907 54.4122 74.2002 54.4041 74.9835 54.1977C76.2826 53.8552 77.5783 53.5 78.8732 53.1405C78.0404 54.6013 77.4183 56.1684 76.6503 57.6622C76.3194 58.3061 75.9813 58.9559 75.6292 59.5875C75.2602 60.2501 74.84 60.2954 74.1532 60.5129ZM81.7334 56.9263C79.8283 58.0556 77.8686 59.1068 75.8069 59.9207C77.0185 57.6957 78.299 55.5008 79.5283 53.2863C79.937 52.5496 80.7474 52.5933 81.501 52.4051C82.7743 52.0871 84.0366 51.692 85.296 51.322C84.6011 52.2384 84.2304 53.4114 83.8128 54.4715C83.6207 54.9594 83.4823 55.5567 83.1518 55.9738C82.7946 56.4236 82.212 56.6419 81.7334 56.9263ZM89.6685 51.8069C87.6966 53.0782 85.7648 54.4118 83.7798 55.6627C84.1898 54.8369 84.5876 54.0048 85.0163 53.1884C85.3573 52.5381 85.7564 51.4428 86.3894 51.0308C86.9446 50.6692 87.8159 50.5654 88.4452 50.367C89.3566 50.08 90.2643 49.7811 91.1695 49.4759C90.9803 49.9596 90.88 50.5425 90.6202 50.9943C90.401 51.3754 90.0235 51.5729 89.6685 51.8069ZM95.1485 48.1072C95.0639 48.186 94.9779 48.2632 94.8899 48.3382L94.8954 48.3323C94.873 48.3522 94.8497 48.3708 94.8256 48.3882L94.8366 48.3793L94.8019 48.406L94.8146 48.3946L94.7888 48.4128L94.7917 48.4107L94.782 48.4175L94.7888 48.4128C93.5561 49.2305 92.3454 50.0812 91.1001 50.8803C91.4492 50.1533 91.657 49.4132 92.4237 49.0338C93.3073 48.5964 94.3119 48.4081 95.2242 48.0376L95.1485 48.1072ZM106.611 59.2615C108.404 59.3823 110.193 59.5625 111.975 59.8012C112.818 59.9139 113.656 60.0551 114.497 60.1831C115.285 60.3031 116.165 60.3353 116.85 60.7901L116.805 60.8007L116.808 60.799C115.641 61.0546 114.448 61.1763 113.29 61.4713C112.547 61.6608 111.839 62.0313 111.078 62.1457C110.265 62.2683 109.795 61.6523 109.216 61.1729C108.338 60.4468 107.327 59.8427 106.361 59.2429C106.443 59.2505 106.527 59.2569 106.611 59.2615ZM97.8533 58.95C100.107 58.9207 102.392 58.9301 104.641 59.0572C106.649 59.1708 107.958 61.4404 109.563 62.4569C108.285 62.7782 107.004 63.0885 105.725 63.4022C104.952 63.5921 104.049 64.1096 103.342 63.5755C102.515 62.9515 101.801 62.1419 100.978 61.4951C99.8731 60.6273 98.7627 59.7596 97.6121 58.9534L97.8533 58.95ZM90.1027 59.6748C91.3468 59.4281 92.6053 59.2586 93.868 59.145C94.4998 59.0881 95.1332 59.064 95.7654 59.014C96.2538 58.9754 96.795 58.8351 97.2618 59.0305C97.6828 59.2073 98.0421 59.6613 98.3853 59.9534C98.8918 60.3845 99.408 60.8041 99.9133 61.2373C100.974 62.1466 102.004 63.0834 103.009 64.0541C101.643 64.3733 100.275 64.6815 98.9049 64.9808C98.3988 65.0914 97.5859 65.4407 97.0696 65.3779C96.6312 65.3245 96.3909 64.982 96.0524 64.6739C94.1092 62.9032 91.9879 61.2055 89.8073 59.7342C89.9055 59.7134 90.0041 59.6939 90.1027 59.6748ZM82.9897 62.0851C84.1005 61.445 85.2909 60.9542 86.5104 60.5655C87.3394 60.3009 88.889 59.5557 89.7146 60.0385C90.7205 60.6269 91.6282 61.7282 92.4868 62.5111C93.5379 63.4695 94.5865 64.4382 95.738 65.2766L95.7312 65.272C95.7544 65.2902 95.7777 65.308 95.801 65.3262L95.7951 65.3224C95.8183 65.341 95.8412 65.3605 95.8636 65.3809L95.8598 65.3767C95.8822 65.3974 95.9047 65.4182 95.9271 65.439L95.9246 65.4356C95.9779 65.4865 96.0308 65.5373 96.0832 65.5894C94.7744 65.8688 93.4639 66.1393 92.1525 66.405C91.5601 66.5254 90.9668 66.6348 90.382 66.7878C89.9368 66.9044 89.4988 67.076 89.0592 66.8755C88.6555 66.6916 88.2725 66.277 87.9086 66.0163C87.3906 65.6454 86.901 65.2397 86.4157 64.8277C85.2926 63.8748 84.1797 62.8867 82.9081 62.1334C82.9356 62.1173 82.9626 62.1012 82.9897 62.0851ZM92.667 67.511L92.6658 67.5131C92.6654 67.5114 92.6658 67.511 92.667 67.511ZM79.1516 65.8717C79.6027 64.9968 80.2328 64.2249 80.9556 63.5624C81.2992 63.2474 81.6639 62.9566 82.0444 62.6883C82.3029 62.5056 82.4184 62.3695 82.688 62.4598C82.8729 62.5217 83.2009 62.9134 83.3337 63.0304C84.9697 64.4771 86.6137 65.9277 88.4282 67.1494C87.4448 67.3482 86.4605 67.544 85.4758 67.739C84.6274 67.9069 83.704 68.2019 82.8391 68.2405C82.173 68.2706 78.9447 66.2842 79.1516 65.8717ZM78.4737 69.1642C78.3895 68.1481 78.5778 67.1316 78.9938 66.2024C79.9607 66.9718 80.9179 67.7547 81.9534 68.4317C80.7867 68.6606 79.6378 69.0027 78.4868 69.3011C78.4822 69.2557 78.478 69.21 78.4737 69.1642ZM80.6115 73.1471C79.637 72.3438 78.9058 71.2684 78.6142 70.031C80.4296 69.8068 82.2179 69.5533 84.0155 69.2133C82.7083 70.3748 81.7693 71.8478 80.7017 73.2183C80.6716 73.195 80.6416 73.1713 80.6115 73.1471ZM85.9646 74.7965C84.222 74.7481 82.4142 74.4277 80.959 73.412C82.1688 72.2404 83.2191 70.9297 84.3819 69.7156L84.3785 69.7182C84.8322 69.2655 85.1047 68.959 85.7428 68.8157C86.2866 68.6932 86.8507 68.6674 87.3991 68.569C88.8793 68.3032 90.3528 67.9878 91.8258 67.6847C90.8195 69.1404 90.1721 70.861 89.2834 72.3938C88.9178 73.0237 88.6072 73.8041 88.1578 74.3742C87.6716 74.9906 86.6725 74.8202 85.9646 74.7965ZM95.4853 72.8631C93.1914 73.724 90.7823 74.4421 88.3381 74.6977C89.1281 73.437 90.013 72.2399 90.8187 70.9894C91.1885 70.4151 91.5457 69.8297 91.8804 69.2341C92.1398 68.7729 92.2976 67.9535 92.6852 67.6055C93.0504 67.2783 93.675 67.2876 94.1312 67.2037C94.7748 67.0858 95.4146 66.9319 96.054 66.7937C97.4759 66.486 98.8952 66.1668 100.312 65.8366C99.5422 67.221 98.8761 68.6716 98.1631 70.0861C97.8677 70.6724 97.6464 71.4363 97.2508 71.9572C96.8559 72.4786 96.0769 72.638 95.4853 72.8631ZM104.139 68.7377C102.01 69.9013 99.8562 71.006 97.6367 71.9865C98.1906 70.9738 98.789 69.9861 99.3721 68.9904C99.9624 67.9819 100.48 66.8552 101.163 65.9095C101.586 65.3249 102.551 65.3076 103.219 65.1444C104.336 64.8714 105.452 64.5924 106.565 64.3046C106.169 65.1075 105.817 65.9459 105.544 66.7988C105.225 67.7958 105.065 68.2222 104.139 68.7377ZM112.337 64.0223C110.099 65.4 107.81 66.6945 105.514 67.9717C106.069 66.6309 106.57 64.4814 108.038 63.8638C108.687 63.5908 109.411 63.5246 110.089 63.3504C111.044 63.105 111.99 62.8134 112.934 62.5289C112.768 62.9668 112.653 63.8235 112.337 64.0223ZM112.84 63.7052L112.839 63.7057L112.836 63.7014L112.84 63.7052ZM112.838 63.7069C112.836 63.7078 112.835 63.7069 112.834 63.7039L112.838 63.7069ZM116.26 61.4577C115.095 62.1059 114.036 62.9363 112.913 63.6582C112.959 63.587 113.005 63.5149 113.05 63.4433L113.048 63.4475C113.064 63.4212 113.081 63.3962 113.1 63.3721L113.097 63.3755C113.117 63.35 113.136 63.3241 113.155 63.2978L113.153 63.3021C113.736 62.5552 114.102 62.1767 114.986 61.8193L114.977 61.8219C115.447 61.6477 115.937 61.5324 116.411 61.3709C116.361 61.4001 116.311 61.4293 116.26 61.4577ZM92.3535 31.8851C92.7043 35.3827 92.3556 38.8506 92.4686 42.349C91.7979 40.4266 90.9587 38.5708 90.1395 36.7082C90.2537 36.6518 90.3629 36.5564 90.4175 36.459L90.415 36.4772L90.4213 36.4263L90.4175 36.4437L90.4268 36.3932L90.4226 36.4068L90.4336 36.3559L90.4298 36.3687C90.4366 36.3377 90.4442 36.3072 90.4522 36.2767L90.4484 36.2873C90.4577 36.2555 90.467 36.2233 90.4768 36.1915L90.4734 36.1991C90.4844 36.166 90.4958 36.133 90.5072 36.1004L90.5038 36.108C91.0472 34.6108 91.6718 33.1089 92.3306 31.6588L92.3535 31.8851ZM89.9546 22.9265C90.6384 24.3004 91.1589 25.7522 91.5457 27.2371C91.841 28.3702 92.5257 30.1874 91.9896 31.3086L91.9917 31.3053C91.9747 31.3413 91.9561 31.3765 91.9367 31.4112L91.9396 31.4066C91.315 32.4917 90.7463 33.6002 90.1852 34.7189L90.1873 34.7133C90.0197 35.0262 89.828 35.325 89.6677 35.6417C89.1391 34.4569 88.6115 33.2713 88.044 32.1043C87.6847 31.3655 86.9971 30.6558 87.2125 29.8C87.8214 27.3804 89.0338 25.0842 89.856 22.7324C89.8885 22.7973 89.9216 22.8621 89.9546 22.9265ZM85.8943 17.4206C86.7635 18.2853 87.5684 19.2153 88.2898 20.2072C88.683 20.7473 89.663 21.7227 89.4117 22.4386C89.2686 22.8464 88.911 23.2423 88.7168 23.634C88.4392 24.1931 88.1984 24.7692 87.9653 25.3482C87.4524 26.6212 86.9717 27.9039 86.5612 29.2142C86.0115 28.1735 85.4348 27.1468 84.8521 26.1244C84.4484 25.4161 83.7671 24.7383 83.8763 23.8786C84.1581 21.6574 84.9854 19.3768 85.7513 17.2841C85.7991 17.3294 85.8469 17.3752 85.8943 17.4206ZM81.9839 21.2945C81.4105 20.3696 80.2823 19.1585 80.2713 18.0331C80.2586 16.7588 80.4723 15.3659 80.6378 14.1023C81.7613 14.3829 82.7807 14.97 83.7256 15.6249C84.2854 16.0128 85.5122 16.613 85.4077 17.3731C85.3577 17.7359 85.0848 18.0844 84.9333 18.4103C84.7057 18.9012 84.5233 19.4192 84.332 19.9249C83.9029 21.0601 83.5064 22.2135 83.2749 23.4072C82.8564 22.6955 82.4197 21.9952 81.9839 21.2945ZM77.6502 14.374C78.4678 13.9395 79.4093 13.8615 80.3107 14.0298C80.0229 15.1642 79.8596 16.3248 79.6027 17.4659C78.9582 16.4367 78.4039 15.2973 77.555 14.4266C77.5872 14.4092 77.6189 14.3914 77.6502 14.374ZM75.4722 18.0619C75.603 16.8474 76.0731 15.6236 77.0147 14.8102C77.4095 16.3091 78.4399 17.7486 79.1978 19.0949C78.7348 18.9771 75.4379 18.3883 75.4722 18.0619ZM76.9372 25.0791C76.0718 23.0478 75.3584 20.7613 75.4379 18.5256C75.8522 18.6804 76.2741 18.8131 76.6952 18.9483L76.6922 18.9478C77.5563 19.2581 78.4737 19.5434 79.3074 19.9292C80.1012 20.2967 80.4152 21.1809 80.8354 21.91C81.8705 23.7065 82.9618 25.4703 83.9981 27.2664C82.6262 26.8628 81.281 26.3728 79.912 25.965C79.4686 25.8332 77.0692 25.6675 76.9372 25.0791ZM81.7642 32.7045C80.0348 30.5837 78.4428 28.3134 77.2757 25.8289C78.2202 26.2719 79.2494 26.5038 80.226 26.8628C81.3258 27.2677 82.4354 27.6182 83.5576 27.9548C84.1822 28.1421 84.5626 28.2451 84.8889 28.831C85.1699 29.3354 85.4487 29.8411 85.7234 30.349C86.3006 31.4155 86.8621 32.4905 87.3949 33.5794C87.3208 33.585 87.2467 33.59 87.1727 33.5938H87.1778C87.1524 33.5951 87.127 33.5955 87.1016 33.5955L87.1079 33.5964L87.0699 33.5955L87.0779 33.596L87.0411 33.5942L87.0512 33.5964L87.0237 33.5947L87.0305 33.5955L87.0161 33.5942L87.0237 33.5947L86.9979 33.5917L87.0144 33.5947L86.984 33.5905L86.9912 33.5922C85.9743 33.4082 84.9325 33.3259 83.9046 33.2272C83.2927 33.1674 82.2073 33.225 81.7642 32.7045ZM87.4016 38.8256C85.6028 37.0113 83.8361 35.1686 82.187 33.2153C83.9465 33.7469 85.9036 34.2772 87.7423 34.3285L87.7385 34.3293C88.2759 35.0711 88.559 35.9698 88.9301 36.7981C89.3693 37.7781 89.8302 38.7484 90.2749 39.7259C89.297 39.5572 88.124 39.5492 87.4016 38.8256ZM91.6354 42.9272C90.555 41.9471 89.4997 40.9374 88.4743 39.9002C89.2009 40.1464 90.2436 40.0896 90.7412 40.7517C91.2325 41.4054 91.5364 42.4147 91.8872 43.1565L91.6354 42.9272ZM61.9775 27.9064C63.0443 28.0946 64.9371 27.945 65.6963 28.8208C66.5037 29.7525 67.1312 31.0102 67.8092 32.0428C65.8673 30.655 63.897 29.307 61.9653 27.9039L61.9775 27.9064ZM63.4764 36.5607C65.8909 36.4653 68.3076 36.4776 70.7226 36.5446C69.8446 36.8485 68.969 37.1715 68.1104 37.5272C67.2696 37.8752 66.8219 37.9235 65.9345 37.6484L65.9379 37.651C65.9113 37.6421 65.8846 37.6327 65.8584 37.6234L65.863 37.6264C64.9845 37.3008 64.1378 36.8939 63.2606 36.57L63.4764 36.5607ZM54.7571 37.5289C56.7641 37.1287 58.7856 36.924 60.816 36.6934C61.7033 36.5925 62.4223 36.5713 63.2398 36.9749C64.1704 37.4344 65.04 38.0117 66.0255 38.3576C64.1632 39.093 62.2767 39.9573 60.3632 40.5266L60.364 40.5271L60.3551 40.5229L60.3627 40.5266L60.3107 40.4995L60.3204 40.5046C60.2878 40.4855 60.2553 40.4669 60.2222 40.4478L60.2299 40.4512C58.401 39.2778 56.5522 38.3805 54.532 37.5734C54.6077 37.559 54.6826 37.5437 54.7571 37.5289ZM47.2142 39.8972C49.1019 39.0222 51.2271 38.2181 53.2764 37.826C54.2434 37.6412 54.9759 38.2745 55.7706 38.7395C56.806 39.3457 57.8276 39.976 58.8635 40.5805L58.8567 40.5758C59.0365 40.6844 59.2164 40.7937 59.3979 40.9001C58.1775 41.3592 56.9296 41.7814 55.7312 42.296C55.3207 42.4723 54.9289 42.7271 54.4968 42.8496C54.0144 42.9865 53.7428 42.8233 53.3061 42.6381L53.3116 42.6402C53.2684 42.6216 53.2261 42.6012 53.1842 42.58L53.1918 42.5834C52.2096 42.0768 51.1733 41.6962 50.1526 41.2782C49.1197 40.8552 48.1244 40.3406 47.0746 39.9603L47.2142 39.8972ZM40.8155 44.265C41.6496 43.3104 42.6563 42.5228 43.7104 41.8271C44.4349 41.349 45.5787 40.3948 46.466 40.2867C47.334 40.1812 48.5357 41.2723 49.2454 41.6745C50.4184 42.3401 51.6583 42.8653 52.8998 43.3858C51.7899 43.8186 50.6782 44.2468 49.5738 44.6936C48.5501 45.1077 47.5405 45.6617 46.4995 46.0186C45.6853 46.298 44.7378 45.7668 43.9821 45.4714C42.9068 45.0513 41.8447 44.6558 40.7241 44.3705C40.7542 44.3353 40.7846 44.3002 40.8155 44.265ZM39.8469 48.5162L39.8516 48.5243C39.8317 48.4878 39.8131 48.4505 39.7957 48.4128L39.7995 48.4221C39.7813 48.3844 39.764 48.3463 39.747 48.3077L39.7517 48.3178C39.7352 48.2788 39.7187 48.2402 39.703 48.2008L39.7035 48.2017C39.6886 48.1648 39.6747 48.1275 39.6611 48.0902L39.665 48.0996C39.6535 48.0661 39.6425 48.033 39.6311 47.9995L39.6336 48.0063C39.6256 47.98 39.6171 47.9537 39.6087 47.9275L39.6108 47.9338C39.6027 47.9079 39.5956 47.8817 39.5888 47.8554L39.5909 47.8622C39.5824 47.8359 39.5757 47.8096 39.5697 47.7825L39.5723 47.791C39.5655 47.7647 39.5596 47.7384 39.5541 47.7121L39.5562 47.7185C39.5511 47.6939 39.5456 47.6693 39.5401 47.6447L39.5405 47.6481L39.5389 47.6405L39.5397 47.6451C39.5355 47.6197 39.5312 47.5947 39.527 47.5692L39.5283 47.5769C39.5236 47.551 39.5198 47.5247 39.5164 47.4989L39.5177 47.5065C39.5139 47.4802 39.5105 47.4543 39.508 47.4281L39.5092 47.4357C39.5063 47.4103 39.5037 47.3844 39.5016 47.3586L39.502 47.3654C39.5008 47.3395 39.4986 47.3136 39.4961 47.2878L39.4974 47.2954C39.4965 47.2704 39.4953 47.245 39.4936 47.22V47.2242V47.2174V47.22C39.4936 47.1958 39.4931 47.1712 39.4927 47.147L39.4923 47.1551C39.4919 47.1288 39.4919 47.103 39.4923 47.0767L39.4919 47.0847C39.4936 47.0462 39.4953 47.008 39.4965 46.9695L39.4953 46.9834C39.4982 46.9321 39.5025 46.8812 39.5075 46.8299L39.5063 46.844C39.5122 46.7927 39.5185 46.7414 39.5257 46.6901L39.5232 46.7036C39.5312 46.6528 39.5397 46.6015 39.5486 46.5506L39.5477 46.5587C39.5583 46.5095 39.5693 46.4603 39.5816 46.4112L39.579 46.4247C39.7115 45.8834 40.0661 44.972 40.5206 44.6986L40.5113 44.6953C41.9479 45.4782 43.5526 46.2124 45.1216 46.6736C44.1953 47.1174 43.2547 47.5603 42.278 47.8829C41.5015 48.1398 40.5887 48.1466 39.8782 48.5764C39.8689 48.5574 39.8579 48.537 39.8469 48.5162ZM42.0211 50.3292C41.4634 50.247 40.7567 49.6777 40.3585 49.2415C41.3123 49.1656 42.2556 48.9371 43.1616 48.6357C42.7604 49.1847 42.3872 49.7561 42.0211 50.3292ZM45.6646 51.0227C44.5208 51.0503 43.3571 50.8782 42.2822 50.4789C42.9335 49.7688 43.6351 49.0859 44.2025 48.306L44.2008 48.3081C44.2178 48.2861 44.2351 48.2644 44.2529 48.2437L44.2504 48.2449C46.1398 47.3391 48.1058 46.5201 50.0447 45.7185C49.1142 46.8283 48.2179 47.9944 47.4804 49.2436C47.2146 49.6938 46.9861 50.3805 46.6125 50.7514C46.3023 51.0596 46.1186 51.0121 45.6646 51.0227ZM52.4745 49.342C50.6778 50.0774 48.8154 50.6472 46.8896 50.9168L46.8981 50.8998L46.896 50.9053L46.9061 50.8854L46.904 50.8909C48.113 49.1283 49.4358 47.4158 50.7248 45.7104L50.7214 45.713C50.7413 45.6884 50.7616 45.6634 50.7819 45.6388L50.7793 45.6422C51.4687 44.8054 52.7259 44.6024 53.6878 44.2446C54.9526 43.7745 56.2013 43.257 57.4594 42.7691C56.5407 44.0111 55.5878 45.2404 54.8273 46.5888C54.4858 47.1945 54.2472 47.9313 53.8346 48.4925C53.4897 48.9609 52.9955 49.1287 52.4745 49.342ZM60.2629 45.0208C58.3942 46.2747 56.4692 47.465 54.4439 48.4501C55.1659 47.4154 55.8154 46.3327 56.4785 45.2598C56.9897 44.4328 57.4273 43.3752 58.0997 42.6699C58.7327 42.0056 59.698 41.8522 60.5295 41.5601C61.6906 41.1519 62.8277 40.6555 63.9694 40.196C63.2754 41.1027 62.5361 41.9725 61.9801 42.975C61.4871 43.864 61.1172 44.4456 60.2629 45.0208ZM70.2707 37.5641C67.7292 39.6806 65.0535 41.6445 62.3609 43.563C62.9373 42.7305 63.5305 41.9085 64.0849 41.0607C64.5576 40.3376 64.8555 39.7751 65.6692 39.4042C67.1837 38.7137 68.9132 38.4212 70.3291 37.514L70.2707 37.5641ZM68.3085 26.3808C68.573 28.2824 68.5954 30.2481 69.0414 32.12C68.7625 31.449 68.355 30.811 67.9543 30.2073C67.606 29.6821 67.4935 29.5537 67.6026 28.9603L67.6005 28.9658C67.876 28.0298 68.0546 27.0705 68.2712 26.1197C68.2848 26.2066 68.2971 26.2935 68.3085 26.3808ZM65.571 17.5774C66.4948 19.3133 67.2328 21.1805 67.7491 23.0796C68.2746 25.0125 67.6344 26.6899 66.9391 28.508C66.3691 27.55 65.8034 26.5678 65.1559 25.6598C64.7349 25.0693 64.0654 24.417 63.9884 23.6595C63.9012 22.804 64.3913 21.7184 64.5994 20.9003C64.888 19.7647 65.18 18.6176 65.5283 17.4986L65.571 17.5774ZM60.8151 11.3856C62.129 12.6403 63.2496 14.0218 64.3083 15.4931C64.6007 15.8996 65.0979 16.3532 65.2181 16.853C65.3476 17.3909 64.9659 17.9208 64.8038 18.4167L64.8051 18.4125C64.2427 19.8847 63.7299 21.4031 63.3676 22.9376C62.6796 21.9452 61.975 20.9647 61.2556 19.9953C60.7817 19.3565 59.9396 18.6765 59.8922 17.8432C59.8414 16.9504 60.0949 15.9285 60.1677 15.0366C60.2722 13.756 60.499 12.5055 60.6526 11.2325C60.7063 11.2834 60.7605 11.3343 60.8151 11.3856ZM55.7858 7.75362C56.9152 8.30045 57.9664 9.00283 58.9523 9.77644C59.4686 10.1817 60.4495 10.6756 60.2743 11.4547L60.2747 11.4517L60.2675 11.4809L60.2684 11.4776L60.2671 11.4818V11.4809C59.7254 13.3626 59.4508 15.3345 59.1656 17.2675C57.8166 15.5503 56.181 13.9828 54.9154 12.219V12.224C54.912 12.1977 54.9094 12.1714 54.9073 12.1452V12.1503C54.7571 10.5085 54.6716 8.85915 54.5104 7.21868C54.9471 7.36959 55.3715 7.55142 55.7858 7.75362ZM50.0528 7.40351C50.7772 6.9402 51.6409 6.77103 52.4915 6.80663C52.8761 6.82274 53.2582 6.8817 53.6332 6.96648C54.3576 7.13052 54.2599 7.25808 54.2476 7.99439V7.98932C54.1659 9.13723 54.1727 10.2839 54.1871 11.4339C53.4478 10.6259 52.6899 9.84386 51.9236 9.0622C51.3654 8.49291 50.7882 7.69515 49.999 7.43699L50.0528 7.40351ZM48.3703 9.76966C48.5467 9.03674 48.9191 8.36572 49.4722 7.85111C49.7388 8.6989 50.8373 9.54798 51.4103 10.2258C50.4036 10.0062 49.3876 9.87393 48.3593 9.81628L48.3703 9.76966ZM49.3478 15.1777C48.5535 13.6623 48.0288 11.8679 48.2945 10.1469C49.2369 10.3809 50.1514 10.6942 51.0679 11.0113C51.7569 11.2495 52.3861 11.2444 52.9354 11.7692C53.403 12.2155 53.7559 12.7738 54.1642 13.2714C54.821 14.0713 55.512 14.8433 56.1683 15.644C55.0017 15.4732 53.8177 15.4923 52.6434 15.4121C52.0522 15.3719 51.4628 15.3163 50.8712 15.2799C50.5001 15.2574 49.6715 15.4024 49.3478 15.1777ZM53.8485 21.1275C52.2194 19.4531 50.7463 17.6122 49.5733 15.5868C52.0294 15.7529 54.4376 16.4693 56.8983 16.6877L56.8919 16.6868C57.4412 16.7215 58.3083 18.3196 58.6049 18.7041C59.3243 19.6371 60.0289 20.5815 60.7203 21.5353C59.2968 21.4615 57.8771 21.3204 56.4514 21.2899C55.9474 21.2788 54.1951 21.5981 53.8485 21.1275ZM61.0872 27.2638C58.7124 25.5161 56.3757 23.6747 54.2941 21.5785C56.5098 21.7786 58.7035 22.049 60.9065 22.3585L60.898 22.356C60.9217 22.3593 60.9454 22.364 60.9691 22.3691L60.9632 22.3683C61.8252 22.5489 62.2814 23.6717 62.6944 24.3377C63.3562 25.4051 64.098 26.4241 64.781 27.4779C64.087 27.4003 63.3845 27.4211 62.6897 27.4719C62.2378 27.5054 61.4278 27.6763 61.0872 27.2638ZM28.4833 14.3499C29.8734 14.3316 31.2601 14.4427 32.6485 14.4838C33.8046 14.5182 34.9793 14.3282 36.1197 14.3643C37.0198 14.3931 37.6989 15.7012 38.2503 16.3307C39.1775 17.3888 40.1122 18.4396 41.0783 19.4625C39.8105 19.6799 38.5271 19.8028 37.2423 19.8609C36.093 19.9126 35.438 19.5226 34.5167 18.8681C32.4585 17.4065 30.379 16.023 28.4786 14.3495L28.4833 14.3499ZM36.7553 12.3927C35.4439 11.007 34.0018 9.91718 33.3073 8.07366C32.9752 7.19154 32.7297 6.28016 32.4754 5.37387C32.2118 4.43452 31.8119 3.54522 31.5461 2.61053L31.5478 2.61348C31.5398 2.58847 31.533 2.56348 31.5275 2.53762L31.5279 2.53974L31.5254 2.52996C33.3971 3.46847 35.0783 4.7482 36.641 6.13348C37.2864 6.70574 37.9016 7.30978 38.5541 7.87357C39.257 8.48101 39.3053 8.81888 39.2701 9.72686L39.2706 9.72392C39.1432 11.3826 38.8313 13.118 38.9727 14.781C38.2431 13.9751 37.503 13.1803 36.7553 12.3927ZM45.2968 24.2872C45.7771 24.8311 46.2612 25.358 46.7978 25.8467C45.7687 25.2808 44.734 24.7255 43.7125 24.1461C44.1162 24.1736 45.018 24.0172 45.2968 24.2872ZM42.8095 21.3865C43.4125 22.0864 44.0083 22.793 44.6096 23.4946C43.9634 23.6103 43.3147 23.7697 42.6724 23.5564C42.0774 23.3585 41.5616 22.9533 41.0229 22.6438C39.6049 21.8304 38.1653 21.0588 36.7582 20.2255C37.9325 20.2216 39.0996 20.381 40.2752 20.3738C40.6928 20.3713 41.3475 20.2056 41.7461 20.3306C42.2103 20.4769 42.5128 21.0406 42.8095 21.3865ZM48.7198 23.7243C49.2445 24.9956 49.8145 26.2439 50.3604 27.5071C49.4726 27.4541 48.6297 25.9069 48.6212 25.1443V25.1494C48.6208 25.1189 48.6221 25.0884 48.6246 25.0583L48.6225 25.0736C48.675 24.5814 48.6741 24.0791 48.6623 23.5849L48.7198 23.7243ZM45.2313 16.6126C46.0797 18.0649 46.7893 19.5756 47.5654 21.0644C47.8519 21.6141 48.1287 22.0058 47.978 22.64C47.7965 23.4021 47.7956 24.099 47.7588 24.8824C47.119 24.1232 46.4753 23.3678 45.8436 22.6019C45.3933 22.0559 44.6155 21.4416 44.3371 20.7897C44.0976 20.2289 44.3583 19.518 44.503 18.961C44.729 18.089 44.9202 17.1997 45.0506 16.3083C45.1115 16.4087 45.1716 16.5105 45.2313 16.6126ZM39.9578 9.39751C41.1122 10.6514 42.0998 12.0244 43.1603 13.3537C43.5064 13.7878 44.9693 15.2922 44.5571 15.9263L44.5593 15.9213C44.0726 17.237 43.8809 18.677 43.7734 20.0699C43.0756 19.2319 42.3372 18.4222 41.5603 17.6575C40.8756 16.9844 40.075 16.3083 39.8359 15.3392C39.6197 14.4639 39.7043 13.5288 39.7276 12.6377C39.7585 11.4534 39.7551 10.255 39.6611 9.07322C39.7602 9.18089 39.8592 9.28899 39.9578 9.39751ZM24.5631 2.91148C25.6358 1.73559 27.2079 1.38501 28.7393 1.60543C29.4037 1.70123 30.258 1.8619 30.8416 2.21204C31.412 2.55412 31.4319 3.54139 31.5842 4.15222L31.5834 4.14839L31.5931 4.19501L31.5918 4.18782L31.5935 4.19548V4.19501C31.8347 5.5413 32.0501 6.89395 32.4585 8.20209C30.071 6.09364 27.4131 4.3048 24.5309 2.94749C24.5419 2.93562 24.5525 2.92377 24.5631 2.91148ZM23.3545 6.56545C23.2699 5.41585 23.5699 4.25183 24.2411 3.31121C25.9388 4.24632 27.543 5.34548 29.0406 6.57647C27.138 6.49932 25.2643 6.48619 23.363 6.66465C23.3596 6.63201 23.3567 6.59852 23.3545 6.56545ZM28.0068 13.9268C25.9887 12.0578 23.8293 9.80696 23.4011 6.96347C24.6883 6.9444 25.9773 6.9758 27.2608 7.07923C28.3445 7.16655 29.625 7.07625 30.4726 7.81721C32.4018 9.50347 34.0999 11.4856 35.7638 13.4279C34.2104 13.5054 32.6629 13.703 31.112 13.8204C30.7468 13.848 28.2886 14.3596 28.0068 13.9268ZM27.1613 21.1C29.6013 22.1593 31.9257 23.4704 34.309 24.6488C32.8935 24.4827 31.2842 24.606 30.0748 23.7607C28.7147 22.8099 27.5375 21.6209 26.169 20.6803C26.502 20.8151 26.8325 20.9554 27.1613 21.1ZM16.5429 18.2573C18.9854 18.5702 21.3813 19.1471 23.757 19.7851C26.1208 20.4196 27.6996 22.6862 29.5217 24.1927C28.1811 24.0952 26.8198 23.9519 25.475 23.9566C25.0459 23.9583 24.613 24.0346 24.1844 23.9947C23.5538 23.9362 23.641 23.6526 23.2077 23.2817L23.2124 23.2847C20.8477 21.7388 18.8263 19.6842 16.4041 18.2395L16.5429 18.2573ZM4.40992 19.6863C7.23835 18.1001 11.0015 17.6478 14.1985 17.9462C15.8582 18.1013 16.6474 19.0568 17.7557 20.1856C19.0611 21.515 20.4923 22.7985 22.0351 23.8451C20.3602 23.8112 18.6849 23.8159 17.0105 23.8527C16.1176 23.8722 15.2239 23.8947 14.3318 23.9375C13.7001 23.9681 13.0628 24.116 12.4314 24.1037C11.7641 24.0906 11.3904 23.7234 10.8805 23.3542C10.2132 22.8706 9.47054 22.4806 8.74608 22.0906C7.28616 21.3043 5.81271 20.5459 4.38495 19.7007L4.40992 19.6863ZM1.35214 25.3211C1.21799 24.0901 1.48416 22.8112 2.14007 21.7574C2.41047 21.3234 3.48192 19.8008 4.15644 19.9194L4.15221 19.9181C6.25026 21.5141 8.47906 22.8638 10.7849 24.1308C7.60269 24.3394 4.49709 24.8353 1.36695 25.4394C1.36145 25.4004 1.35679 25.3609 1.35214 25.3211ZM3.45442 29.2536C2.39735 28.3655 1.67036 27.1074 1.41688 25.7497C3.83399 25.6043 6.25618 25.5754 8.67118 25.4156C8.12022 25.8272 3.7337 29.4837 3.45442 29.2536ZM11.2178 31.6041C8.65933 31.51 5.90538 31.0581 3.78703 29.5138C4.9867 28.7754 6.18213 28.0298 7.36614 27.2664C8.29922 26.6648 9.19421 25.8514 10.2284 25.4322C11.2123 25.0337 12.3121 25.188 13.3459 25.1855C14.6856 25.1821 16.0258 25.1303 17.3659 25.127C16.2124 26.5288 14.9619 27.8717 14.0686 29.4651C13.7589 30.0174 13.5448 30.9878 13.0962 31.4223C12.6637 31.8411 11.7586 31.6236 11.2178 31.6041ZM22.3394 29.9534C19.4462 30.794 16.5094 31.4176 13.4957 31.582C14.4 30.2773 15.3466 29.0052 16.3177 27.75C16.6597 27.3079 17.0261 26.8751 17.3308 26.4059C17.5771 26.0261 17.7865 25.397 18.2067 25.1609C18.58 24.9511 19.1352 25.0841 19.5325 25.1159C20.0932 25.1609 20.6539 25.1668 21.2163 25.1838C22.8116 25.2312 24.4061 25.3059 25.9985 25.4152C25.3929 26.3698 24.5402 27.1367 23.9364 28.0938C23.399 28.945 23.3863 29.6469 22.3394 29.9534ZM34.3204 26.2588C30.7531 27.1837 27.2984 28.4626 23.7718 29.5206C24.539 28.5537 25.3066 27.5864 26.0636 26.6119C26.2689 26.3474 26.5253 25.7293 26.791 25.5369C27.0301 25.3635 27.3602 25.5012 27.6412 25.5356C29.8806 25.8081 32.1339 25.9485 34.3724 26.2452L34.3204 26.2588ZM28.84 43.7385C26.7242 44.7143 24.3591 45.3777 22.0118 45.2696C22.801 44.3722 23.5695 43.4562 24.2969 42.5075C25.0476 41.5288 25.5059 40.9014 26.7043 40.4983C28.9991 39.7264 31.2313 38.7713 33.4263 37.7497C32.7378 38.9523 31.9828 40.1214 31.3832 41.3732C31.1526 41.8543 30.9981 42.4185 30.6054 42.7979C30.1607 43.2273 29.3943 43.4871 28.84 43.7385ZM30.3748 44.5215L30.3634 44.5202C30.3744 44.5168 30.3782 44.5172 30.3748 44.5215ZM37.8547 38.0058C35.8781 39.5771 33.8024 41.0493 31.6113 42.3057C32.1695 41.3672 32.7031 40.4135 33.202 39.4419C33.6031 38.6607 33.8773 37.5106 34.6953 37.0901C36.4692 36.1783 38.2203 35.2835 39.9239 34.2365C39.615 34.9545 39.3518 35.6909 39.111 36.4344C38.8597 37.2114 38.4894 37.5009 37.8547 38.0058ZM44.4095 32.028C42.9119 33.5264 41.3851 35.0037 39.7868 36.3949C40.3331 35.3318 40.7601 33.8189 41.6944 33.0636C42.7659 32.1975 43.9804 31.5218 45.0781 30.6906C44.9257 31.3239 44.9037 31.5324 44.4095 32.028ZM42.9428 31.2993L42.9508 31.3001C42.9483 31.3018 42.9457 31.3014 42.9428 31.2993ZM47.2235 28.9666C46.717 29.5855 46.1686 30.1662 45.6307 30.7571C45.646 30.7224 45.662 30.6881 45.6785 30.6537L45.6768 30.6592C45.6984 30.6173 45.7204 30.5753 45.742 30.5333L45.7395 30.5397C45.7581 30.4969 45.7682 30.449 45.7687 30.4007L45.764 30.4074L45.778 30.3332L45.775 30.3379C45.7792 30.3142 45.7826 30.2904 45.7852 30.2663L45.7826 30.2697C45.786 30.2455 45.789 30.2214 45.7915 30.1972L45.7898 30.1993L45.7953 30.1616L45.7936 30.1637C46.2024 29.6856 46.8202 29.3108 47.295 28.8755L47.2235 28.9666ZM39.9011 29.7656C41.2641 29.5151 42.6292 29.2735 43.9948 29.0357C44.6054 28.9293 45.2253 28.8433 45.8313 28.714C46.2392 28.6266 46.7919 28.3884 47.2049 28.5669C45.9549 29.5511 44.3832 30.7007 42.9246 31.2938L42.9339 31.2951L42.9039 31.2879L42.9119 31.2883L42.8814 31.2794L42.8899 31.2819L42.859 31.2709L42.8649 31.2718L42.834 31.2608L42.84 31.2616L42.8078 31.2497L42.8137 31.2506L42.7811 31.237L42.7854 31.2382L42.7536 31.2234L42.757 31.2256C42.7363 31.215 42.716 31.2043 42.6952 31.1937L42.7003 31.1959C41.5802 30.5897 40.3454 30.0348 39.0691 29.8911C39.3472 29.8483 39.6239 29.8072 39.9011 29.7656ZM29.0127 31.5184C31.3807 31.095 33.7809 30.808 36.1379 30.3307C37.1954 30.1166 37.8369 30.1226 38.8474 30.5113C39.8626 30.9017 40.8947 31.3074 41.9678 31.5049L41.9606 31.5032L41.9894 31.5095L41.983 31.5066L42.0131 31.5138L42.008 31.5117L42.0393 31.5197L42.0338 31.5176C42.1561 31.5498 42.2776 31.5854 42.3982 31.6244C41.2683 32.2874 40.1224 32.9245 38.9705 33.5481C37.9913 34.0784 37.0921 34.8626 35.9674 34.4967C34.7651 34.1055 33.6201 33.5646 32.4644 33.0568C31.1818 32.4926 29.8628 32.0606 28.5396 31.6058C28.6974 31.5774 28.8552 31.5481 29.0127 31.5184ZM20.8778 34.1894C22.0474 33.4769 23.3245 32.961 24.6283 32.5536C25.7158 32.2136 27.2074 31.5388 28.3364 31.922C30.9131 32.7973 33.1364 34.5624 35.8006 35.2118C34.4715 35.8952 33.1182 36.5344 31.7577 37.1524C30.7476 37.6115 29.5386 38.5407 28.4122 38.0816C27.2692 37.6158 26.1715 36.8867 25.0518 36.3543C23.6046 35.6663 22.1612 34.9736 20.7106 34.2929C20.7656 34.2573 20.8215 34.2229 20.8778 34.1894ZM16.6817 39.5699C16.9631 38.2809 17.6194 37.0846 18.503 36.1109C18.8825 35.6925 19.3032 35.2996 19.7496 34.9533C20.2147 34.5921 20.3467 34.4845 20.868 34.7435C23.3698 35.9859 25.4263 37.9108 28.1735 38.6806C26.2139 39.4563 24.2212 40.129 22.2458 40.8598C21.3716 41.1833 20.7237 41.2803 19.8325 40.9497C18.7598 40.5517 17.7557 39.9904 16.6719 39.6178L16.6817 39.5699ZM16.9301 42.5601C16.5386 41.7275 16.4752 40.7729 16.6245 39.8743C16.856 39.9633 17.0879 40.0502 17.3156 40.1485L17.3126 40.1481C18.2558 40.5898 19.1449 41.1565 20.1385 41.4846C19.519 41.6673 18.9105 41.8895 18.2888 42.0628C17.8653 42.1811 17.2496 42.2307 16.9521 42.6046L16.9301 42.5601ZM18.2533 44.1022C17.9131 43.8665 17.6059 43.5863 17.3532 43.257C19.764 42.7754 22.1087 42.0929 24.4412 41.3181C23.8632 41.9497 23.3338 42.6228 22.8345 43.3184C22.4807 43.811 22.1058 44.7482 21.6272 45.0784C20.8405 45.621 18.9113 44.5579 18.2533 44.1022Z" fill="currentcolor"></path></svg>